<svg width="128" height="102" viewBox="0 0 128 102" fill="none" xmlns="http://www.w3.org/2000/svg">
<path d="M54.8147 42.7292L58.8634 41.5985L60.9254 41.024L96.4879 31.1006C96.4879 31.1006 95.6737 28.7141 94.3244 25.6021C94.0605 24.993 93.7768 24.3566 93.4739 23.7044C91.2219 18.845 87.9529 13.1378 84.5416 11.7481C79.4417 9.67173 60.3886 15.8494 54.0233 21.6176C51.1058 24.2605 52.1911 31.9862 53.3864 37.3222C53.521 37.9188 53.6557 38.4857 53.7854 39.0113C54.3357 41.2291 54.8147 42.7292 54.8147 42.7292Z" fill="white"/>
<g opacity="0.35">
<path d="M58.8634 41.5985L60.9254 41.024L89.1626 33.1447L96.4879 31.1006L96.4377 30.9566L96.4049 30.8636L96.3735 30.777C96.3663 30.7537 96.3573 30.7321 96.3497 30.7074C96.3461 30.6985 96.3434 30.6877 96.3394 30.6787C96.3241 30.6338 96.307 30.5889 96.2882 30.5387C96.2852 30.527 96.2813 30.5156 96.2765 30.5046C96.2617 30.4642 96.246 30.4215 96.2316 30.3753C96.2096 30.3129 96.1867 30.2492 96.1607 30.1818C96.1419 30.1343 96.1244 30.0822 96.1051 30.031L96.0449 29.8699C96.0198 29.8007 95.9915 29.728 95.965 29.6535C95.9076 29.5032 95.8479 29.3438 95.7828 29.1759C95.7276 29.0274 95.667 28.8716 95.6032 28.7096C95.5296 28.5224 95.4542 28.3262 95.3734 28.1238C95.0754 27.3747 94.7244 26.5205 94.3262 25.6021C94.249 25.4226 94.1691 25.243 94.0888 25.0586C94.0327 24.9306 93.9739 24.8 93.9151 24.6694C93.7741 24.3552 93.6269 24.0293 93.4757 23.7044C91.2237 18.8432 87.9547 13.1378 84.5434 11.7499C80.3439 10.0389 66.6829 13.9238 58.4356 18.5726C65.9818 15.5765 74.5173 13.6868 77.6821 14.9768C79.2473 15.6142 76.3733 21.2536 73.8844 22.0059C67.4657 23.9454 59.6215 27.6961 56.7115 35.1799C56.6343 35.3738 58.213 38.6518 58.8634 41.5985Z" fill="#371A45"/>
</g>
<path d="M97.4718 31.6195L54.312 43.6615L54.0875 42.9608C54.0314 42.7862 52.7082 38.6208 51.933 33.8652C50.8589 27.2827 51.3894 22.9718 53.509 21.0512C60.152 15.0329 79.4695 8.85841 84.8293 11.0417C91.283 13.6702 96.9714 30.1549 97.2102 30.8551L97.4718 31.6195ZM55.3241 41.7938L95.4928 30.5863C94.2962 27.3132 89.3399 14.527 84.253 12.4551C82.0882 11.5736 76.4878 12.3631 69.9905 14.4669C63.3286 16.6214 57.4059 19.5794 54.5337 22.1823C51.2108 25.1932 53.807 36.7477 55.325 41.7938H55.3241Z" fill="#371A45"/>
<path d="M69.7553 15.2645L72.5351 21.9709C72.6554 22.262 72.869 22.5049 73.1423 22.6615C73.4155 22.8181 73.7331 22.8796 74.045 22.8363C76.3957 22.5073 81.7847 21.4659 82.7821 18.7459C83.6102 16.4881 82.4863 13.6352 80.4834 12.4058C78.2428 11.0309 73.1092 12.5144 70.6086 13.3721C70.4246 13.4352 70.2554 13.5353 70.1116 13.6662C69.9677 13.7972 69.8522 13.9563 69.7723 14.1336C69.6923 14.311 69.6496 14.5028 69.6466 14.6973C69.6437 14.8918 69.6807 15.0849 69.7553 15.2645Z" fill="white"/>
<g opacity="0.35">
<path d="M74.046 22.8354C76.3958 22.5082 81.7852 21.4655 82.7817 18.7454C83.6102 16.4872 82.4863 13.6347 80.4826 12.4049C79.1042 11.5606 76.6314 11.7962 74.3512 12.3025C75.5564 12.2491 76.6121 12.4403 77.3989 12.8519C81.9073 15.2093 78.7904 19.1032 78.7904 19.1032C78.7904 19.1032 79.9022 19.2351 80.075 19.5749C80.7959 20.996 76.0097 22.2285 73.5181 22.8089C73.6907 22.8518 73.87 22.8608 74.046 22.8354Z" fill="#371A45"/>
</g>
<path d="M83.8189 17.1475C83.8226 17.7818 83.7142 18.4118 83.4989 19.0084C82.3974 22.0126 77.17 23.1698 74.151 23.5922C73.6715 23.6589 73.1834 23.5645 72.7634 23.3239C72.3433 23.0832 72.015 22.71 71.8299 22.2626L69.0502 15.5567C68.9355 15.2808 68.8787 14.9842 68.8831 14.6854C68.8876 14.3866 68.9532 14.0919 69.0761 13.8195C69.1989 13.5471 69.3763 13.3028 69.5973 13.1016C69.8182 12.9004 70.0781 12.7467 70.3608 12.6499C73.8669 11.4479 78.5381 10.3159 80.8829 11.7553C82.704 12.873 83.8189 15.0477 83.8189 17.1475ZM70.4093 14.7178C70.4095 14.805 70.4269 14.8914 70.4605 14.9719L73.2407 21.6782C73.2958 21.8135 73.3944 21.9266 73.5208 21.9997C73.6472 22.0728 73.7944 22.1019 73.9391 22.0822C78.4322 21.4538 81.4701 20.1072 82.0634 18.4846C82.7466 16.6219 81.839 14.1365 80.0817 13.0584C78.6903 12.2056 75.2399 12.592 70.8537 14.0957C70.7233 14.1401 70.6099 14.224 70.5294 14.3358C70.449 14.4477 70.4054 14.5818 70.4048 14.7196L70.4093 14.7178Z" fill="#371A45"/>
<path d="M83.2929 15.1132C83.2654 15.2477 83.2284 15.38 83.182 15.5091C83.1412 15.6245 83.0976 15.7376 83.0473 15.8449C82.9529 16.0595 82.8437 16.2674 82.7206 16.467C82.4833 16.8579 82.2027 17.2208 81.8839 17.5487C81.267 18.1865 80.5446 18.7131 79.7487 19.1054C79.3618 19.2967 78.9639 19.4647 78.557 19.6085C78.153 19.7647 77.7544 19.8729 77.3478 19.9914C76.9411 20.1099 76.5308 20.2042 76.1143 20.2827C75.9051 20.3204 75.696 20.3554 75.4832 20.3801C75.2637 20.4088 75.0424 20.4206 74.8211 20.4156C74.7693 20.4142 74.7201 20.393 74.6836 20.3562C74.6471 20.3194 74.6262 20.27 74.6253 20.2182C74.6244 20.1664 74.6435 20.1162 74.6786 20.0781C74.7138 20.0401 74.7622 20.017 74.814 20.0139H74.836C75.0285 19.997 75.2198 19.967 75.4082 19.9241C75.6044 19.8823 75.7996 19.8298 75.9944 19.7751C76.3836 19.6628 76.7683 19.53 77.1485 19.3841C77.5286 19.2382 77.9147 19.087 78.2706 18.9079C78.6311 18.7405 78.9814 18.5519 79.3196 18.3432C79.9797 17.938 80.5648 17.4217 81.049 16.8171C81.2826 16.5265 81.4823 16.2103 81.6442 15.8745C81.724 15.713 81.7922 15.546 81.8484 15.3749C81.8781 15.291 81.9005 15.2079 81.9212 15.1253C81.9385 15.0574 81.9514 14.9885 81.9598 14.9189C81.9689 14.7422 82.0467 14.576 82.1766 14.4559C82.3065 14.3357 82.4782 14.2711 82.655 14.2758C82.8319 14.2804 83 14.3541 83.1233 14.4809C83.2467 14.6078 83.3156 14.7778 83.3153 14.9548C83.3141 14.9928 83.3099 15.0306 83.3027 15.0679L83.2929 15.1132Z" fill="#371A45"/>
<path d="M56.5567 32.3498C56.1608 31.5392 55.7909 30.7281 55.4296 29.9062C55.0683 29.0844 54.7231 28.2571 54.3972 27.4173C54.0714 26.5775 53.7621 25.7296 53.495 24.8588C53.228 23.988 52.9833 23.1025 52.8384 22.1572C52.8076 21.9569 52.8578 21.7526 52.9777 21.5892C53.0976 21.4259 53.2775 21.3169 53.4778 21.2861C53.678 21.2554 53.8823 21.3055 54.0457 21.4255C54.209 21.5454 54.3181 21.7252 54.3488 21.9255C54.3515 21.943 54.3533 21.9601 54.3551 21.9772V21.9848C54.4224 22.8075 54.5916 23.6595 54.7886 24.5042C54.9857 25.349 55.2299 26.1955 55.4889 27.0367C55.7479 27.8778 56.032 28.715 56.33 29.5476C56.6281 30.3802 56.9405 31.2111 57.2726 32.0257V32.0298C57.3095 32.124 57.3087 32.2289 57.2703 32.3225C57.2319 32.4162 57.1589 32.4914 57.0665 32.5327C56.974 32.5739 56.8693 32.578 56.7739 32.544C56.6786 32.5101 56.6 32.4407 56.5545 32.3503L56.5567 32.3498Z" fill="#371A45"/>
<path d="M58.9428 70.7967C60.8433 69.9524 62.7267 68.7423 63.729 68.3576L67.2233 70.3402L71.1814 72.5876C71.3118 73.7193 71.4088 74.8078 71.4722 75.8531C72.6289 94.5704 63.5885 100.071 59.2633 100.686C50.7031 101.904 45.2724 97.0248 43.0627 94.7702C42.7063 94.4026 42.3696 94.0163 42.0541 93.613C36.1893 86.1692 30.7007 66.6865 38.5162 61.0533C42.915 57.8795 50.4518 60.0699 53.4268 69.9308C54.1553 72.3479 56.5607 71.8573 58.9428 70.7967Z" fill="white"/>
<g opacity="0.35">
<path d="M61.5085 69.4963C62.4116 69.0026 63.1957 68.5618 63.729 68.3576L71.18 72.5876C73.6532 93.938 63.8291 100.037 59.2633 100.686C57.9339 100.879 56.5875 100.927 55.2478 100.827C55.5068 100.803 58.9069 100.344 59.1686 100.281C64.0854 99.0909 70.228 87.7621 68.5834 84.4985C68.1794 83.6959 67.6946 83.0855 67.568 82.7143C67.3378 82.0379 68.3046 81.694 68.2386 80.6442C68.1785 79.6827 66.5581 79.5853 66.765 78.8447C66.9311 78.2495 68.3809 77.5183 68.3311 76.6453L61.5085 69.4963Z" fill="#371A45"/>
</g>
<path d="M72.3421 79.0965C72.3421 85.5273 71.0588 90.7951 68.5066 94.8101C65.7583 99.134 61.9861 101.071 59.3719 101.443C53.0641 102.341 47.3942 100.276 42.5187 95.3043C37.9287 90.6245 33.1919 78.1624 33.9648 69.1085C34.3095 65.0688 35.6911 62.1512 38.07 60.4348C40.216 58.8876 42.9747 58.5182 45.6396 59.4204C49.4724 60.7189 52.5771 64.47 54.158 69.7127C55.8547 75.3387 58.6766 81.8965 60.2773 82.6806C60.3518 82.717 60.4034 82.7255 60.42 82.7206C60.5136 82.6846 60.6133 82.6675 60.7135 82.67C60.8137 82.6726 60.9125 82.6949 61.0041 82.7357C61.0956 82.7764 61.1783 82.8348 61.2473 82.9075C61.3164 82.9802 61.3704 83.0658 61.4064 83.1593C61.4423 83.2529 61.4595 83.3527 61.4569 83.4529C61.4543 83.5531 61.432 83.6518 61.3913 83.7434C61.3505 83.835 61.2921 83.9177 61.2194 83.9867C61.1468 84.0557 61.0612 84.1097 60.9676 84.1457C60.6687 84.2606 60.1893 84.3374 59.6053 84.0514C56.453 82.5069 52.8482 70.6571 52.6965 70.1535C51.2602 65.3893 48.5091 62.0045 45.1499 60.8666C42.9586 60.1242 40.7035 60.4178 38.9633 61.6746C36.9614 63.1176 35.7912 65.6631 35.486 69.2401C34.7584 77.7558 39.3349 89.8794 43.6103 94.2365C48.1254 98.84 53.3563 100.757 59.1556 99.9311C64.0634 99.2332 72.734 92.6381 70.4219 72.6747C70.4104 72.5751 70.4186 72.4742 70.446 72.3778C70.4735 72.2814 70.5197 72.1913 70.582 72.1128C70.6442 72.0342 70.7214 71.9687 70.809 71.9199C70.8965 71.8712 70.9929 71.8401 71.0925 71.8286C71.1921 71.8171 71.2929 71.8253 71.3894 71.8528C71.4858 71.8802 71.5759 71.9264 71.6544 71.9887C71.733 72.0509 71.7985 72.1281 71.8473 72.2157C71.896 72.3033 71.9271 72.3996 71.9386 72.4992C72.1995 74.6887 72.3342 76.8915 72.3421 79.0965Z" fill="#371A45"/>
<path d="M36.2728 1.05861C37.6526 1.3194 39.1491 1.87418 40.7165 2.74317C52.1691 9.09361 61.2594 31.3749 61.2594 31.3749C61.2594 31.3749 65.2282 30.11 72.2873 27.3715C72.4525 27.3078 72.6177 27.2427 72.7865 27.1772C74.954 26.3315 77.4003 25.3517 80.1002 24.2327C83.261 22.9225 86.7724 21.4197 90.5922 19.714C99.7749 15.6191 111.885 12.0947 111.885 12.0947C111.885 12.0947 115.209 2.30958 121.254 2.45007C121.586 2.45753 121.918 2.49432 122.244 2.56004C128.055 3.71001 126.838 26.1251 124.086 28.0058C120.792 30.2572 117.94 31.1648 112.929 33.3853C109.219 35.0299 105.388 36.7702 102.281 40.5994C99.098 44.9295 99.0621 52.0488 99.4867 56.6505C100.099 63.2662 104.187 64.3587 107.15 65.1905C112.08 66.5783 122.238 65.7461 125.135 70.4533C126.72 73.0266 129.171 94.2324 121.893 95.4663C120.412 95.7164 119.175 95.4533 118.148 94.903C114.766 93.0946 113.654 88.1764 113.654 88.1764C113.654 88.1764 105.685 88.6702 101.302 88.1832C90.4688 86.9865 85.5021 73.5141 85.5021 73.5141C85.5021 73.5141 84.4527 73.559 81.0585 74.0698C76.8648 74.6982 73.6299 75.3593 71.4722 75.8522C69.4142 76.3239 68.3302 76.6449 68.3302 76.6449L64.6837 77.89L62.623 78.5929L58.9424 70.7958L45.0098 41.2946C44.4142 40.3359 43.7081 39.2712 42.9321 38.1239C37.0072 29.3927 26.8432 15.8359 28.1086 6.88926C28.754 2.33112 31.9476 0.239441 36.2728 1.05861Z" fill="white"/>
<g opacity="0.35">
<path d="M36.2728 1.05862C37.6526 1.3194 39.1491 1.87419 40.7165 2.74318C52.1691 9.09361 61.2594 31.3749 61.2594 31.3749C61.2594 31.3749 65.2282 30.11 72.2874 27.3715L72.94 28.798C67.854 30.4431 70.6216 35.9272 68.5654 36.2903C67.5281 36.4735 66.5141 33.2336 64.5571 34.2557C62.6001 35.2777 63.8219 40.2479 62.2424 40.1635C61.0305 40.0971 61.2181 37.4048 60.7279 35.5511C60.2378 33.6973 57.5931 36.5484 56.7291 36.7459C55.3784 37.057 56.5423 34.0689 56.2694 30.4844C55.1549 15.778 41.7579 4.91879 36.2728 1.05862Z" fill="#371A45"/>
</g>
<g opacity="0.35">
<path d="M121.252 2.45008C121.585 2.45754 121.916 2.49434 122.243 2.56005C128.053 3.71002 126.837 26.1251 124.085 28.0058C120.79 30.2572 117.938 31.1648 112.928 33.3853C109.218 35.0299 105.387 36.7702 102.28 40.5994C99.0967 44.9295 99.0608 52.0488 99.4854 56.6505C100.097 63.2662 104.186 64.3587 107.148 65.1905C112.079 66.5783 122.236 65.7462 125.134 70.4533C126.719 73.0266 129.17 94.2324 121.892 95.4663C120.41 95.7164 119.173 95.4533 118.146 94.903C119.532 94.6678 121.055 93.5924 122.042 90.4863C124.257 83.5056 124.669 71.7483 119.599 70.166C114.528 68.5838 109.873 69.6189 105.545 69.5605C102.105 69.5157 97.6371 69.9317 96.2779 67.7068C95.5642 66.5397 97.1756 65.1079 96.9485 63.2904C96.7214 61.473 92.582 61.4501 92.5237 60.1682C92.4496 58.5869 95.2343 58.8293 96.3457 55.5216C97.3489 52.5354 97.1864 44.877 94.4995 42.1609C91.9339 39.5674 96.4961 40.4221 97.8166 39.7371C100.363 38.4184 96.1289 33.1784 98.0635 32.4315C98.9536 32.0886 102.234 33.3741 106.074 32.752C110.877 31.9773 119.091 28.9897 122.153 23.0481C124.33 18.8289 124.801 6.91038 121.252 2.45008Z" fill="#371A45"/>
</g>
<path d="M127.614 82.6667C127.614 86.3474 127.19 90.0581 126.013 92.6552C125.07 94.7311 123.728 95.9318 122.018 96.2204C116.791 97.106 113.988 92.1807 113.071 88.9754C111.084 89.0809 104.944 89.3556 101.216 88.9435C91.1784 87.8335 86.0852 76.9393 85.0013 74.3234C84.3913 74.384 83.2058 74.5213 81.1716 74.8265C73.1321 76.0322 68.5955 77.3653 68.5502 77.3787C68.3561 77.4364 68.147 77.4145 67.969 77.318C67.791 77.2215 67.6587 77.0582 67.6011 76.8641C67.5434 76.67 67.5653 76.461 67.6618 76.283C67.7583 76.105 67.9216 75.9726 68.1157 75.915C68.3024 75.8594 72.7874 74.5402 80.9449 73.3166C84.3392 72.8076 85.4232 72.7546 85.4676 72.7528L86.0251 72.7277L86.2185 73.251C86.2666 73.3812 91.156 86.2948 101.384 87.426C105.648 87.8977 113.527 87.4206 113.606 87.4156L114.254 87.3761L114.398 88.0095C114.469 88.3214 116.21 95.6558 121.763 94.715C122.942 94.5152 123.904 93.6103 124.622 92.025C127.43 85.828 125.486 72.4817 124.485 70.8546C122.668 67.9043 117.37 67.3297 112.696 66.8225C110.541 66.5887 108.51 66.3683 106.941 65.9248L106.865 65.9037C103.885 65.0661 99.3808 63.8008 98.726 56.7187C98.3404 52.5466 98.2089 44.8456 101.665 40.1451L101.688 40.1168C104.96 36.0812 109.029 34.2777 112.618 32.686C113.917 32.1101 115.09 31.615 116.123 31.1778C119.113 29.9143 121.273 29.0013 123.655 27.3751C125.017 26.4438 126.527 15.9522 124.981 8.38442C124.36 5.35598 123.336 3.55293 122.095 3.30695C116.158 2.13184 112.64 12.2392 112.606 12.3393L112.478 12.715L112.096 12.8263C111.976 12.8613 99.932 16.3835 90.9024 20.412C72.901 28.4421 61.6019 32.0657 61.4896 32.1016L60.8164 32.3153L60.5497 31.6626C60.46 31.4422 51.4285 9.55729 40.3431 3.41153C37.0242 1.57121 34.0093 1.14884 31.8543 2.22206C30.2245 3.03359 29.1903 4.68404 28.8635 6.99566C27.7679 14.7515 35.8002 26.4132 41.6659 34.929C43.1736 37.1176 44.5973 39.185 45.6575 40.8911C45.7644 41.0631 45.7985 41.2704 45.7525 41.4676C45.7065 41.6647 45.584 41.8355 45.412 41.9424C45.2401 42.0492 45.0327 42.0833 44.8356 42.0373C44.6384 41.9912 44.4676 41.8688 44.3608 41.6968C43.3195 40.0212 41.9055 37.9682 40.4086 35.7948C34.4007 27.0721 26.1713 15.1254 27.3518 6.78201C27.7522 3.95061 29.0736 1.90113 31.1734 0.857086C33.792 -0.444595 37.3115 -0.0132523 41.0837 2.07798C51.6619 7.9432 60.0555 26.6085 61.6862 30.4301C64.343 29.5418 74.8212 25.9141 90.2785 19.0196C98.502 15.3511 109.175 12.105 111.294 11.4739C112.048 9.46886 115.809 0.510124 122.389 1.81271C124.327 2.19603 125.701 4.30521 126.474 8.08099C127.837 14.7384 127.022 26.9249 124.513 28.6387C122.004 30.3524 119.787 31.2892 116.715 32.5886C115.687 33.0231 114.522 33.516 113.235 34.0864C109.807 35.6063 105.922 37.3285 102.882 41.0684C99.7359 45.364 99.8786 52.6301 100.244 56.5827C100.802 62.6194 104.392 63.6298 107.276 64.4377L107.352 64.4593C108.798 64.8659 110.77 65.08 112.858 65.3063C117.881 65.8516 123.574 66.4693 125.782 70.0561C126.604 71.3851 127.614 76.99 127.614 82.6667Z" fill="#371A45"/>
<g opacity="0.35">
<path d="M42.2592 38.1248C52.7625 39.3641 61.1701 46.0386 64.9081 54.9426C65.1137 55.4336 65.306 55.9322 65.4849 56.4382C66.3889 59.0171 66.8947 61.7186 66.985 64.4498C67.037 65.9371 66.967 67.4262 66.7758 68.9021C66.7103 69.3859 66.6367 69.8658 66.5514 70.3384C66.5514 70.3519 66.546 70.3635 66.5442 70.377C66.0647 72.9892 65.2126 75.519 64.014 77.8891C62.5809 80.7187 60.6864 83.2898 58.4082 85.4968C53.7735 89.9925 47.7919 92.8437 41.3808 93.613C35.5161 86.1692 30.0274 66.6865 37.8429 61.0533C42.2417 57.8795 49.7785 60.0699 52.7535 69.9308C53.4811 72.3466 55.8866 71.856 58.2686 70.7953L44.3361 41.2942C43.7414 40.3368 43.0371 39.2721 42.2592 38.1248Z" fill="#371A45"/>
</g>
<path d="M53.9264 88.4031C57.6241 84.7276 60.3137 80.1623 61.7365 75.1466C62.0356 74.0921 62.2784 73.0225 62.4637 71.9422C62.5561 71.4116 62.6324 70.8725 62.6993 70.3263C63.0491 67.3499 62.9618 64.3384 62.4403 61.3873C62.1571 59.7897 61.7458 58.2175 61.2104 56.686C61.0153 56.1321 60.8059 55.5852 60.582 55.0454C56.4723 45.1705 47.2959 37.7424 35.9142 36.4066C19.1512 34.4352 3.96587 46.4278 1.99404 63.1886C1.62175 66.331 1.74062 69.5122 2.34639 72.6181C2.41282 72.9727 2.48957 73.3269 2.57351 73.6788C2.79165 74.6214 3.05319 75.5475 3.35811 76.4572C4.76398 80.6344 7.05228 84.4601 10.0676 87.6746C10.5434 88.1818 11.0372 88.6732 11.5489 89.1487C16.3013 93.5648 22.3367 96.3527 28.7801 97.1083C38.4229 98.2448 47.5418 94.758 53.9264 88.4031Z" fill="white"/>
<path d="M62.992 66.7372C62.9918 67.9405 62.9214 69.1428 62.781 70.3379C62.7074 70.9363 62.6298 71.4655 62.5445 71.9538C62.3586 73.0369 62.1154 74.1094 61.816 75.1668C60.3842 80.1938 57.6875 84.7699 53.9834 88.4579C47.3044 95.1055 38.115 98.2879 28.7706 97.1886C22.3103 96.4316 16.259 93.637 11.4937 89.2097C10.991 88.7429 10.4923 88.2456 10.0124 87.7321C6.98931 84.5089 4.69492 80.6731 3.28498 76.4851C2.9811 75.5775 2.71627 74.6402 2.49858 73.699C2.4088 73.3242 2.33429 72.9763 2.27101 72.6352C1.66256 69.5212 1.54263 66.3314 1.91551 63.1805C3.89048 46.4004 19.1467 34.3544 35.9254 36.3276C46.9224 37.6185 56.3987 44.7791 60.6575 55.0153C60.8819 55.5539 61.0924 56.1083 61.2859 56.6604C62.2752 59.4943 62.8403 62.4588 62.9628 65.458C62.9823 65.8847 62.992 66.3111 62.992 66.7372ZM53.8694 88.3457C57.5541 84.6773 60.2365 80.1253 61.6602 75.1246C61.9584 74.0729 62.2005 73.0061 62.3856 71.9287C62.4704 71.4403 62.5472 70.9138 62.6203 70.3187C63.1654 65.7301 62.6576 61.0776 61.1355 56.7147C60.942 56.1657 60.7315 55.615 60.5071 55.0781C56.2703 44.8958 46.8434 37.7729 35.9048 36.4892C19.2145 34.5263 4.03816 46.509 2.07441 63.2002C1.70324 66.335 1.82242 69.5084 2.42766 72.6065C2.49094 72.9454 2.56456 73.291 2.65208 73.6635C2.86888 74.6003 3.13236 75.5321 3.43489 76.4352C4.8374 80.6012 7.11953 84.4167 10.1265 87.623C10.6058 88.1338 11.1018 88.6284 11.6019 89.093C16.3419 93.4974 22.3613 96.2778 28.7877 97.0315C38.0826 98.1254 47.2241 94.9596 53.8676 88.347L53.8694 88.3457Z" fill="#371A45"/>
<g opacity="0.35">
<path d="M35.9155 36.4093C47.2958 37.7437 56.4732 45.1719 60.5834 55.0481C60.8075 55.5867 61.017 56.1333 61.2118 56.6878C62.7344 61.0635 63.2439 65.7277 62.702 70.329C62.6333 70.8726 62.5579 71.4112 62.4668 71.9422C62.28 73.0225 62.0367 74.0922 61.7378 75.147C60.3154 80.163 57.6257 84.7283 53.9277 88.4036C51.9363 90.3863 49.6826 92.0867 47.2294 93.4573C51.4436 89.06 54.2453 83.5021 55.2738 77.499C55.3663 76.9698 55.4413 76.4312 55.509 75.8858C56.056 71.2853 55.5468 66.6206 54.0202 62.2464C53.8242 61.6916 53.6147 61.1446 53.3918 60.6054C49.2834 50.7305 40.1056 43.3024 28.7239 41.9661C22.3424 41.206 15.8841 42.4869 10.2759 45.6252C16.6761 38.9471 26.0213 35.2449 35.9155 36.4093Z" fill="#371A45"/>
</g>
<path d="M63.5333 66.7372C63.5331 67.9617 63.4613 69.1851 63.3183 70.4013C63.2433 71.0117 63.1648 71.5494 63.0777 72.049C62.8885 73.1504 62.6411 74.241 62.3366 75.3162C60.8797 80.4328 58.1352 85.0903 54.3654 88.8439C47.5688 95.6086 38.2168 98.8471 28.7078 97.7281C22.1339 96.957 15.9764 94.1123 11.1278 89.6065C10.6161 89.1312 10.108 88.6249 9.61787 88.1019C6.54129 84.822 4.2066 80.9183 2.77234 76.6561C2.46263 75.7323 2.19332 74.7781 1.97158 73.8207C1.88181 73.44 1.80416 73.0836 1.73908 72.7335C1.12138 69.5662 1.00023 66.3222 1.37999 63.1176C3.38908 46.0409 18.9155 33.7821 35.9905 35.7903C47.1809 37.1037 56.8251 44.3909 61.1597 54.8075C61.3868 55.3569 61.6023 55.9193 61.8002 56.4804C62.8069 59.3657 63.3816 62.384 63.5059 65.4373C63.5238 65.8691 63.533 66.3024 63.5333 66.7372ZM53.4878 87.9623C57.1066 84.3592 59.7411 79.8884 61.1395 74.9769C61.4326 73.943 61.6704 72.8942 61.8518 71.8349C61.9358 71.3542 62.0112 70.8366 62.0835 70.2504C62.4255 67.3361 62.3399 64.3873 61.8294 61.4977C61.5515 59.9331 61.1486 58.3932 60.6247 56.8929C60.4348 56.3543 60.2274 55.8125 60.0088 55.2846C55.8475 45.2841 46.588 38.2873 35.8437 37.026C19.4496 35.0959 4.54264 46.8681 2.61345 63.2631C2.24822 66.3415 2.36467 69.458 2.95862 72.5006C3.02101 72.8359 3.09328 73.1738 3.17991 73.5365C3.39401 74.4598 3.65255 75.3768 3.9497 76.262C5.32754 80.354 7.56924 84.1018 10.5228 87.2514C10.9936 87.7532 11.4811 88.2388 11.9721 88.6949C16.6275 93.0218 22.5402 95.7532 28.8528 96.4929C37.983 97.567 46.9619 94.4578 53.4878 87.9623Z" fill="#371A45"/>
<path d="M63.7137 66.7372C63.7135 67.9688 63.6413 69.1992 63.4974 70.4223C63.422 71.0368 63.343 71.5773 63.2554 72.0795C63.0652 73.1873 62.8163 74.2842 62.5099 75.3656C61.0445 80.5118 58.2841 85.1964 54.4924 88.9718C47.6567 95.7756 38.2509 99.0325 28.6867 97.9072C22.0735 97.1322 15.8791 94.2708 11.0017 89.738C10.4864 89.2595 9.97562 88.7505 9.48277 88.2245C6.3895 84.9258 4.04199 81.0003 2.59955 76.7144C2.28804 75.7848 2.01603 74.8252 1.7916 73.8619C1.70183 73.48 1.62373 73.1204 1.55775 72.7676C0.937103 69.5825 0.815958 66.3202 1.19866 63.0979C3.21852 45.9219 18.8361 33.5922 36.0098 35.6121C47.2649 36.9331 56.9647 44.2625 61.3254 54.7393C61.5538 55.2918 61.7706 55.8574 61.9695 56.4211C62.9829 59.3234 63.5616 62.3595 63.6868 65.431C63.7044 65.8646 63.7134 66.3 63.7137 66.7372ZM53.3604 87.8335C56.9573 84.2523 59.5759 79.8087 60.9663 74.9271C61.2571 73.8998 61.4934 72.8579 61.6741 71.8057C61.7572 71.3277 61.8326 70.8129 61.9044 70.2298C62.0893 68.6591 62.1494 67.0763 62.0839 65.4961C61.9656 62.5832 61.4168 59.7039 60.4555 56.9517C60.2669 56.4166 60.0609 55.878 59.8437 55.3533C55.7075 45.4129 46.5032 38.4583 35.824 37.2047C19.5304 35.2885 4.71142 46.9897 2.7939 63.2833C2.43136 66.343 2.54705 69.4405 3.13683 72.4646C3.19922 72.7981 3.27148 73.1321 3.35677 73.4934C3.56997 74.4122 3.82672 75.3221 4.11983 76.2032C5.48904 80.2706 7.71731 83.9959 10.6534 87.1261C11.1216 87.6257 11.6059 88.1082 12.0938 88.5625C16.7212 92.8632 22.5984 95.578 28.873 96.3129C37.948 97.3807 46.8721 94.2903 53.3595 87.834L53.3604 87.8335Z" fill="#371A45"/>
<path d="M58.7229 82.212C65.6604 61.5013 50.2179 40.6622 29.1432 45.5354C14.8035 48.8512 6.97858 65.4513 11.0452 79.0202C14.0045 88.8951 21.2141 97.2438 37.7971 96.8399C37.7971 96.8399 45.1104 95.5278 49.2609 92.2166C53.4115 88.9054 56.8915 84.9855 56.8915 84.9855L58.7229 82.212Z" fill="#371A45"/>
<path d="M29.1414 45.5368C50.2179 40.6631 65.66 61.5026 58.7238 82.2125L58.3508 82.774C56.1514 62.8838 39.2887 47.3892 17.8867 51.92C20.9129 48.8471 24.7165 46.5606 29.1414 45.5368Z" fill="#220F2D"/>
<path d="M63.7138 66.7372C63.7136 67.9688 63.6413 69.1992 63.4974 70.4223C63.422 71.0368 63.343 71.5773 63.2555 72.0795C63.0652 73.1873 62.8164 74.2842 62.5099 75.3656C61.0445 80.5118 58.2841 85.1964 54.4924 88.9718C47.6568 95.7756 38.251 99.0325 28.6863 97.9072C23.1642 97.262 17.9137 95.1572 13.4749 91.8095L13.4085 91.7592L13.3537 91.6964C10.7001 88.65 8.66543 84.8055 7.30584 80.2689C4.88201 72.1895 6.09033 62.798 10.5327 55.1495C14.6173 48.1209 20.9013 43.3158 28.237 41.6205C36.2073 39.7802 43.8442 41.0078 50.3207 45.1759C57.0927 49.533 61.9578 56.8691 63.6693 65.3036L63.6846 65.4293C63.7043 65.8633 63.7138 66.3 63.7138 66.7372ZM53.3604 87.8335C56.9573 84.2523 59.576 79.8087 60.9663 74.9271C61.2571 73.8998 61.4934 72.8579 61.6741 71.8057C61.7572 71.3277 61.8326 70.8129 61.9044 70.2298C62.0859 68.6808 62.1459 67.12 62.084 65.5617C60.447 57.5751 55.8448 50.6403 49.4526 46.527C43.3482 42.5986 36.1355 41.4432 28.5969 43.1857C21.7011 44.7773 15.778 49.3144 11.9205 55.9539C7.69634 63.2254 6.54637 72.1424 8.84317 79.8066C10.1274 84.0914 12.0332 87.7146 14.5091 90.5792C18.7063 93.7257 23.6623 95.7041 28.8725 96.3129C37.9475 97.3807 46.8717 94.2903 53.3591 87.834L53.3604 87.8335Z" fill="#371A45"/>
<path d="M61.2001 72.0427C61.1944 75.5875 60.6148 79.1079 59.4837 82.4674L59.4501 82.5675L57.4867 85.517C57.3431 85.679 53.9152 89.5271 49.7583 92.8428C45.4982 96.2411 38.2429 97.5733 37.9363 97.6285L37.8138 97.6406C23.3031 97.9934 14.0374 91.8055 10.2746 79.2505C8.11289 72.0382 9.1888 63.6581 13.1527 56.8327C16.7974 50.5582 22.4112 46.2684 28.9605 44.7544C38.4161 42.568 47.4687 45.3101 53.7971 52.2773C58.643 57.6119 61.2001 64.6756 61.2001 72.0427ZM57.9953 81.8579C61.377 71.6531 59.3172 60.7409 52.609 53.3554C46.6841 46.8308 38.1944 44.2656 29.3214 46.3174C23.2089 47.7308 17.9595 51.7512 14.5401 57.6384C10.7948 64.0872 9.77455 71.9942 11.811 78.7895C15.335 90.5496 24.0491 96.3506 37.7101 96.0373C38.3986 95.9058 45.0072 94.5794 48.7574 91.5878C52.5789 88.5396 55.8686 84.9164 56.2497 84.4922L57.9953 81.8579Z" fill="#371A45"/>
<path d="M33.1838 32.7686C35.1139 33.5177 36.6171 34.8082 37.3402 36.5448C39.0288 40.603 35.8038 45.5579 30.1378 47.6128C29.671 47.782 29.2015 47.927 28.7338 48.0464C23.5154 49.3844 18.3652 47.7088 16.8162 43.9856C15.1271 39.9274 18.3504 34.9707 24.0181 32.9158C27.2611 31.7398 30.6019 31.7686 33.1838 32.7686Z" fill="white"/>
<g opacity="0.35">
<path d="M33.1838 32.7686C35.1139 33.5177 36.6171 34.8082 37.3402 36.5448C39.0288 40.603 35.8038 45.5579 30.1378 47.6128C29.671 47.782 29.2015 47.927 28.7338 48.0464C29.5727 47.0813 30.7088 45.0749 27.8886 43.2238L27.7517 38.5557C27.7517 38.5557 29.8129 34.9613 33.1838 32.7686Z" fill="#371A45"/>
</g>
<path d="M38.5943 38.8039C38.5943 39.8233 38.3659 40.8687 37.9098 41.9046C36.6652 44.7351 33.9321 47.0907 30.4103 48.3682C24.3552 50.5635 17.9245 48.7362 16.0756 44.2948C15.3368 42.52 15.3956 40.5599 16.2462 38.6257C17.4904 35.7952 20.224 33.4396 23.7452 32.1622C29.8008 29.9668 36.2316 31.7941 38.0804 36.2356C38.4205 37.0491 38.5952 37.9222 38.5943 38.8039ZM17.169 41.7251C17.1676 42.3948 17.2995 43.058 17.5568 43.6763C19.083 47.338 24.6039 48.7654 29.8636 46.8578C32.9289 45.746 35.3877 43.6525 36.4412 41.2574C37.1104 39.7344 37.1647 38.211 36.5992 36.8509C35.0731 33.1892 29.5521 31.7618 24.2924 33.6694C21.2272 34.7822 18.7683 36.8774 17.7148 39.2712C17.3513 40.098 17.169 40.9252 17.169 41.7251Z" fill="#371A45"/>
<path d="M35.4505 35.3107C34.5279 31.8582 30.0284 30.0618 25.4004 31.2984C20.7724 32.535 17.7685 36.3363 18.691 39.7889C19.6135 43.2414 24.1131 45.0378 28.7411 43.8012C33.3691 42.5646 36.373 38.7633 35.4505 35.3107Z" fill="white"/>
<path d="M35.692 36.5556C35.6918 36.8 35.675 37.0442 35.6417 37.2863C35.1372 40.9836 30.8838 44.1148 26.1596 44.2665C23.514 44.3514 21.1822 43.4967 19.7616 41.9208C18.7162 40.761 18.2732 39.339 18.4823 37.8097C18.9869 34.1125 23.2402 30.9812 27.9645 30.8295C30.6096 30.7447 32.9418 31.5993 34.362 33.1753C35.2391 34.1479 35.692 35.3064 35.692 36.5556ZM18.5999 38.5382C18.5999 39.7474 19.0376 40.8669 19.8864 41.8081C21.2738 43.3468 23.558 44.1817 26.1542 44.0973C30.7999 43.9478 34.9814 40.8817 35.4752 37.2621C35.6763 35.7809 35.2508 34.4078 34.2377 33.2857C32.8503 31.747 30.5656 30.9121 27.9698 30.9965C23.3237 31.146 19.1422 34.2121 18.6484 37.8317C18.6164 38.0658 18.6002 38.3019 18.5999 38.5382Z" fill="#371A45"/>
<g opacity="0.35">
<path d="M32.5994 42.042C31.238 42.9621 29.619 43.5115 27.9784 43.696C30.9068 41.3368 31.168 37.8007 28.4627 35.5394C26.7149 34.0779 24.129 33.4863 21.5903 33.7731C21.7743 33.6232 21.9722 33.4787 22.1783 33.3391C25.647 30.9978 30.7918 31.0499 33.669 33.4522C36.5462 35.8545 36.0664 39.7021 32.5994 42.042Z" fill="#371A45"/>
</g>
<path d="M36.3469 36.2042C36.3469 36.9618 36.1768 37.7415 35.837 38.518C34.8378 40.8036 32.4548 42.8082 29.4632 43.8796C24.3655 45.7056 19.2082 44.4003 17.722 40.9082C17.1614 39.5912 17.2022 38.1253 17.8396 36.6678C18.8388 34.3822 21.2217 32.3781 24.2134 31.3062C29.3111 29.4807 34.4684 30.7855 35.9546 34.2777C36.2144 34.8867 36.3478 35.5421 36.3469 36.2042ZM18.938 38.9826C18.9364 39.4283 19.0252 39.8698 19.1992 40.2802C20.3339 42.946 24.6959 43.8832 28.9232 42.3692C31.5069 41.4441 33.5424 39.7658 34.3683 37.8757C34.8239 36.833 34.8621 35.8065 34.4796 34.9065C33.3445 32.2407 28.9825 31.3035 24.7556 32.8175C22.172 33.7431 20.1364 35.4209 19.3105 37.311C19.0609 37.8788 18.938 38.4421 18.938 38.9826Z" fill="#371A45"/>
<g opacity="0.5">
<path d="M14.7667 69.9798C14.7667 69.9798 19.3801 82.4293 28.7787 87.2204C28.7886 87.2258 28.7985 87.2307 28.8084 87.2356C30.7897 88.2397 33.0027 88.698 35.2198 88.5634C38.1513 88.3892 40.1456 87.8394 41.8827 87.2882C47.1648 85.6085 49.3256 83.832 49.3256 83.832C47.4902 87.7235 44.8599 90.4239 40.4742 91.8665C40.0415 92.0074 39.5908 92.137 39.1222 92.2552C39.0145 92.283 38.9072 92.3077 38.799 92.3315C38.799 92.3315 38.7959 92.3315 38.7923 92.3315C37.5706 92.5501 36.3368 92.6952 35.0977 92.766C30.7088 93.0169 24.6842 92.3957 20.6073 88.0862C12.9875 80.0306 14.0769 69.7203 14.7667 69.9798Z" fill="white"/>
</g>
<g opacity="0.5">
<path d="M28.5984 53.7908C27.3825 51.8904 24.6016 51.4983 22.3871 52.9151C20.1726 54.3319 19.363 57.021 20.5789 58.9215C21.7947 60.8219 24.5756 61.214 26.7901 59.7972C29.0046 58.3804 29.8142 55.6913 28.5984 53.7908Z" fill="white"/>
</g>
<g opacity="0.5">
<path d="M33.4201 50.5003C32.8535 49.7608 31.6957 49.6966 30.834 50.3568C29.9723 51.0171 29.7331 52.1518 30.2997 52.8912C30.8663 53.6307 32.0242 53.695 32.8858 53.0347C33.7475 52.3745 33.9867 51.2398 33.4201 50.5003Z" fill="white"/>
</g>
<path d="M83.6811 73.5607C83.6811 71.3267 81.8701 69.5156 79.6361 69.5156C77.402 69.5156 75.5909 71.3267 75.5909 73.5607C75.5909 75.7948 77.402 77.6059 79.6361 77.6059C81.8701 77.6059 83.6811 75.7948 83.6811 73.5607Z" fill="white"/>
<g opacity="0.35">
<path d="M80.4561 77.521C80.9836 77.4209 81.486 77.2168 81.9338 76.9206C82.3817 76.6243 82.766 76.2419 83.0646 75.7956C83.3631 75.3493 83.5698 74.848 83.6726 74.321C83.7754 73.794 83.7723 73.2518 83.6634 72.726C83.5545 72.2002 83.342 71.7013 83.0384 71.2585C82.7347 70.8157 82.346 70.4377 81.8947 70.1467C81.4435 69.8556 80.9388 69.6573 80.4102 69.5633C79.8815 69.4693 79.3394 69.4815 78.8155 69.5991C78.2289 69.7189 77.6767 69.969 77.1996 70.3308C77.9441 70.5113 78.6221 70.8995 79.1546 71.4502C79.6871 72.0009 80.0524 72.6915 80.2079 73.4416C80.3634 74.1917 80.3027 74.9706 80.0329 75.6876C79.7632 76.4046 79.2954 77.0303 78.684 77.4918C79.2651 77.6341 79.8707 77.6441 80.4561 77.521Z" fill="#371A45"/>
</g>
<path d="M84.4451 73.5617C84.4433 74.667 84.0614 75.7382 83.3635 76.5954C82.6655 77.4526 81.694 78.0436 80.6118 78.2693C79.6402 78.4701 78.6301 78.3652 77.7204 77.9691C76.8107 77.5729 76.0459 76.9049 75.531 76.0568C75.0161 75.2086 74.7764 74.2219 74.8447 73.232C74.9129 72.2421 75.286 71.2977 75.9125 70.5283C76.539 69.7589 77.3882 69.2022 78.3437 68.9348C79.2992 68.6673 80.3141 68.7022 81.249 69.0345C82.1839 69.3669 82.993 69.9805 83.5653 70.791C84.1375 71.6016 84.4448 72.5694 84.4451 73.5617ZM80.3021 76.7746C81.0457 76.6203 81.7128 76.213 82.1897 75.6221C82.6666 75.0312 82.9239 74.2932 82.9178 73.5338C82.9116 72.7745 82.6423 72.0407 82.1558 71.4576C81.6694 70.8745 80.9958 70.4782 80.2498 70.336C79.5038 70.1939 78.7317 70.3148 78.0648 70.6781C77.398 71.0415 76.8778 71.6247 76.5928 72.3286C76.3078 73.0325 76.2757 73.8134 76.5019 74.5383C76.7281 75.2632 77.1987 75.8873 77.8334 76.3042C78.5615 76.7819 79.4494 76.9511 80.3021 76.7746Z" fill="#371A45"/>
<path d="M89.747 68.5129L88.1567 48.0787C87.9695 45.6598 85.8356 43.8329 83.414 44.021L72.54 44.8671C70.4196 45.0323 68.7575 46.689 68.503 48.7237C68.4657 49.0177 68.4588 49.3147 68.4824 49.6102L70.0722 70.0417C70.2598 72.4655 72.3937 74.2901 74.8148 74.0989L83.4275 73.4306L85.6893 73.2555C88.1109 73.0679 89.9342 70.9318 89.747 68.5129Z" fill="white"/>
<path d="M69.6763 28.0619C69.6763 28.0619 69.6216 25.3499 72.751 24.5316C74.7462 24.0096 77.0192 25.1331 77.0192 25.1331C77.0192 25.1331 81.2245 32.6052 81.2883 45.4156C81.2883 45.4156 77.714 49.4778 74.0751 45.7356C74.0751 45.7356 73.093 34.0591 69.6763 28.0619Z" fill="white"/>
<path d="M89.747 68.5129L88.1567 48.0787C87.9695 45.6598 85.8356 43.8329 83.414 44.021L72.54 44.8671C70.4196 45.0323 68.7575 46.689 68.503 48.7237C68.4657 49.0177 68.4588 49.3147 68.4824 49.6102L70.0722 70.0417C70.2598 72.4655 72.3937 74.2901 74.8148 74.0989L83.4275 73.4306L85.6893 73.2555C88.1109 73.0679 89.9342 70.9318 89.747 68.5129Z" fill="white"/>
<path d="M69.6763 28.0619C69.6763 28.0619 69.6216 25.3499 72.751 24.5316C74.7462 24.0096 77.0192 25.1331 77.0192 25.1331C77.0192 25.1331 81.2245 32.6052 81.2883 45.4156C81.2883 45.4156 77.714 49.4778 74.0751 45.7356C74.0751 45.7356 73.093 34.0591 69.6763 28.0619Z" fill="white"/>
<g opacity="0.35">
<path d="M86.1476 42.4374C88.5688 42.2503 90.7022 44.0767 90.8912 46.496L92.4806 66.9298C92.6682 69.3491 90.8454 71.4843 88.422 71.6733L86.1611 71.847L77.5475 72.5158C75.1264 72.707 72.993 70.8802 72.8058 68.459L71.2164 48.027C71.1923 47.732 71.1989 47.4352 71.2361 47.1415C71.4915 45.1068 73.1532 43.4496 75.2732 43.2858L76.7095 43.1736C76.4043 40.374 75.3338 32.2187 72.7842 27.1781C74.9518 26.3324 75.5856 26.0981 78.2854 24.9787C80.3856 27.4254 83.3741 31.5212 83.9998 42.6049L86.1476 42.4374Z" fill="#371A45"/>
</g>
<path d="M89.747 68.5129L88.1567 48.0787C87.9695 45.6598 85.8356 43.8329 83.414 44.021L72.54 44.8671C70.4196 45.0323 68.7575 46.689 68.503 48.7237C68.4657 49.0177 68.4588 49.3147 68.4824 49.6102L70.0722 70.0417C70.2598 72.4655 72.3937 74.2901 74.8148 74.0989L83.4275 73.4306L85.6893 73.2555C88.1109 73.0679 89.9342 70.9318 89.747 68.5129Z" fill="white"/>
<g opacity="0.35">
<path d="M89.747 68.5129L88.1567 48.0787C87.9696 45.6598 85.8357 43.8329 83.4141 44.021L72.5401 44.8671C70.4197 45.0323 68.7576 46.689 68.5031 48.7237C69.364 49.8243 69.9147 50.5227 69.9147 50.5227C78.7208 50.8369 85.1619 49.9513 85.3177 63.5647C85.3716 68.2579 84.2404 71.4924 83.4276 73.4306L85.6893 73.2555C88.1109 73.0679 89.9342 70.9318 89.747 68.5129Z" fill="#371A45"/>
</g>
<path d="M90.5245 68.8585C90.522 70.161 90.0292 71.4148 89.1443 72.3706C88.2593 73.3263 87.0471 73.9138 85.7486 74.0163L74.8728 74.862C73.5046 74.9671 72.1506 74.5251 71.1079 73.6332C70.0651 72.7412 69.4187 71.472 69.3106 70.1041L67.7207 49.6699C67.6176 48.3021 68.0602 46.9491 68.9517 45.9067C69.8433 44.8643 71.1113 44.2173 72.4786 44.1072L83.3544 43.2611C84.7226 43.1561 86.0766 43.5981 87.1194 44.49C88.1622 45.3819 88.8087 46.651 88.9171 48.019L90.5069 68.4523C90.5191 68.5892 90.5245 68.7248 90.5245 68.8585ZM69.232 49.2659C69.232 49.3606 69.2351 49.4558 69.2428 49.5514L70.8326 69.9847C70.9087 70.9494 71.3644 71.8445 72.0997 72.4736C72.835 73.1027 73.7899 73.4144 74.7547 73.3404L85.6306 72.4947C86.5944 72.4161 87.488 71.9596 88.1167 71.2248C88.7454 70.4901 89.0581 69.5365 88.9867 68.5721L87.3968 48.1393C87.3207 47.1745 86.865 46.2794 86.1297 45.6502C85.3944 45.021 84.4396 44.7092 83.4747 44.7832L72.5989 45.6301C71.6836 45.7024 70.829 46.1166 70.2052 46.7903C69.5813 47.4639 69.2339 48.3477 69.232 49.2659Z" fill="#371A45"/>
<path d="M89.7304 69.3397C89.765 69.0654 89.7706 68.7883 89.747 68.5129L88.1567 48.0787C88.089 47.2339 87.7798 46.4263 87.2662 45.7522C86.7525 45.0781 86.0559 44.5659 85.2593 44.2764C84.6699 44.0597 84.0405 43.9737 83.4145 44.0241L78.5835 44.398L76.9892 44.5215L72.5401 44.8675C70.1162 45.0556 68.2948 47.1917 68.4824 49.6106L68.8271 54.026C69.0516 51.9613 70.7258 50.2713 72.8668 50.1035L78.7406 49.6447L83.744 49.2565C86.1624 49.0688 88.299 50.8952 88.4866 53.3137L89.7304 69.3397Z" fill="white"/>
<g opacity="0.35">
<path d="M89.7304 69.3397C89.765 69.0654 89.7706 68.7883 89.747 68.5129L88.1567 48.0787C87.9695 45.6598 85.8357 43.8329 83.4145 44.0241L76.9891 44.5215C78.1647 44.947 79.6298 45.7621 79.891 47.2281C80.0364 48.0324 79.5149 48.8754 78.741 49.6447L83.7444 49.2565C86.1629 49.0688 88.2994 50.8952 88.4871 53.3137L89.7304 69.3397Z" fill="#371A45"/>
</g>
<path d="M90.5245 68.85C90.5245 69.045 90.5128 69.2399 90.4894 69.4335L88.9705 69.4012L87.7249 53.3743C87.6468 52.4107 87.1905 51.5172 86.4559 50.8888C85.7212 50.2604 84.7677 49.9483 83.8037 50.0204L72.9274 50.8665C72.0799 50.9335 71.2822 51.2941 70.672 51.8861C70.0617 52.4781 69.6771 53.2644 69.5844 54.1095L68.0645 54.0857L67.7202 49.6721C67.6174 48.3039 68.0605 46.9506 68.9527 45.9081C69.8449 44.8657 71.1136 44.219 72.4813 44.1094L83.3557 43.2633C84.7237 43.1596 86.0771 43.6019 87.1197 44.4936C88.1623 45.3853 88.8092 46.6537 88.9189 48.0212L90.5078 68.4559C90.5186 68.5852 90.5245 68.7176 90.5245 68.85ZM69.359 51.0492C70.2466 50.0575 71.4825 49.4466 72.8094 49.3435L83.6848 48.4974C84.3624 48.4433 85.0441 48.5243 85.6903 48.7357C86.3364 48.947 86.9342 49.2845 87.4489 49.7287C87.4749 49.7507 87.5 49.7735 87.5252 49.7951L87.3968 48.1384C87.3182 47.1748 86.8617 46.2814 86.127 45.6531C85.3922 45.0248 84.4388 44.7126 83.4747 44.7845L72.5989 45.6301C71.6349 45.7084 70.741 46.1648 70.1121 46.8996C69.4833 47.6345 69.1706 48.5882 69.2423 49.5527L69.359 51.0492Z" fill="#371A45"/>
<path d="M79.0211 57.7305C79.4251 57.6968 82.6205 56.8606 82.6205 56.8606L82.4293 54.5714C82.2973 52.9946 80.558 51.8527 78.5435 52.021C76.5291 52.1893 75.0039 53.6041 75.1358 55.1809L75.327 57.4701C75.327 57.4701 78.3667 57.7852 79.0211 57.7305Z" fill="#22A7F0"/>
<g opacity="0.35">
<path d="M79.0211 57.7305C79.4251 57.6968 82.6205 56.8606 82.6205 56.8606L82.4293 54.5714C82.2973 52.9946 80.558 51.8527 78.5435 52.021C76.5291 52.1893 75.0039 53.6041 75.1358 55.1809L75.327 57.4701C75.327 57.4701 78.3667 57.7852 79.0211 57.7305Z" fill="#371A45"/>
</g>
<path d="M83.231 57.2924L82.7655 57.4145C82.0024 57.6133 79.4888 58.2673 79.0687 58.301C78.3802 58.3584 75.5847 58.0725 75.2682 58.0397L74.796 57.9908L74.5653 55.2276C74.4863 54.285 74.8701 53.3712 75.6457 52.6521C76.3828 51.9685 77.3963 51.5416 78.496 51.4496C80.8215 51.2552 82.8418 52.6337 82.9998 54.5225L83.231 57.2924ZM78.9727 57.1577C79.1948 57.1348 80.6146 56.7861 82.0101 56.4256L81.8588 54.6158C81.7533 53.3563 80.2878 52.4465 78.5916 52.5883C77.7441 52.6593 76.9757 52.9793 76.424 53.4892C75.9124 53.9641 75.6574 54.5481 75.7059 55.1298L75.8576 56.9459C77.0201 57.0612 78.5884 57.1918 78.9727 57.16V57.1577Z" fill="#371A45"/>
<path d="M82.6169 56.856C82.485 55.2792 80.7454 54.1375 78.7313 54.3059C76.7173 54.4743 75.1914 55.8891 75.3233 57.4659C75.4551 59.0427 77.1947 60.1845 79.2088 60.0161C81.2229 59.8476 82.7487 58.4328 82.6169 56.856Z" fill="#22A7F0"/>
<g opacity="0.35">
<path d="M78.7356 54.3101C80.7488 54.1409 82.4894 55.2833 82.6214 56.8597C82.7534 58.436 81.2268 59.8531 79.2101 60.0201C78.9439 60.0432 78.6762 60.0423 78.4102 60.0174C79.7595 59.4958 80.6581 58.3692 80.554 57.1447C80.44 55.7828 79.127 54.7437 77.4708 54.5979C77.8766 54.4425 78.3025 54.3456 78.7356 54.3101Z" fill="#371A45"/>
</g>
<path d="M78.7356 54.3102C78.871 54.2982 79.0069 54.2935 79.1427 54.2958C77.591 54.7406 76.5183 55.9566 76.6291 57.2906C76.7535 58.7597 78.2724 59.8535 80.1096 59.8544C79.8165 59.9391 79.5158 59.9946 79.2119 60.0201C77.1992 60.1893 75.4585 59.0469 75.3266 57.4706C75.1946 55.8942 76.7207 54.4794 78.7356 54.3102Z" fill="white"/>
<path d="M83.2009 57.0477C83.2009 58.8405 81.4889 60.4047 79.2604 60.591C78.1593 60.6808 77.0901 60.4299 76.2499 59.8782C75.3656 59.2979 74.8351 58.4594 74.7565 57.5177C74.5981 55.6267 76.3621 53.9336 78.6872 53.7397C79.7887 53.6476 80.8574 53.9008 81.6977 54.4524C82.5824 55.0324 83.1125 55.8708 83.191 56.813C83.1977 56.8915 83.2009 56.9701 83.2009 57.0477ZM79.1648 59.45C80.861 59.3082 82.1515 58.1658 82.05 56.9081C82.0011 56.3246 81.6532 55.7923 81.0697 55.4094C80.4413 54.9978 79.6302 54.8097 78.7828 54.8807C77.087 55.0225 75.7925 56.1666 75.8975 57.4225C75.9465 58.006 76.2943 58.5379 76.8783 58.9213C77.5067 59.3329 78.3178 59.5209 79.1648 59.45Z" fill="#371A45"/>
<path d="M89.7466 62.1674C89.7465 62.3091 89.6939 62.4458 89.5988 62.5509C89.5038 62.6561 89.3732 62.7222 89.2322 62.7366L82.6133 63.4098C82.4277 63.4286 82.2496 63.4931 82.095 63.5976C81.9404 63.7021 81.8142 63.8433 81.7277 64.0086L80.6603 66.0401C80.4832 66.3807 80.2223 66.6707 79.9023 66.8827C79.5822 67.0947 79.2135 67.2218 78.8308 67.2521L69.9196 67.9765C69.8447 67.9826 69.7693 67.9739 69.6978 67.9509C69.6262 67.9278 69.5599 67.8909 69.5026 67.8423C69.4453 67.7936 69.3982 67.7341 69.3639 67.6673C69.3296 67.6004 69.3088 67.5274 69.3027 67.4525C69.2966 67.3776 69.3053 67.3022 69.3283 67.2306C69.3514 67.1591 69.3883 67.0928 69.4369 67.0355C69.4856 66.9782 69.545 66.931 69.6119 66.8967C69.6788 66.8624 69.7518 66.8416 69.8267 66.8355L78.7379 66.1111C78.9279 66.096 79.1109 66.0329 79.2699 65.9278C79.4288 65.8227 79.5585 65.679 79.6468 65.5101L80.7137 63.4785C80.8881 63.1456 81.1424 62.8611 81.4538 62.6507C81.7652 62.4403 82.124 62.3105 82.498 62.2729L89.1164 61.5996C89.2675 61.5842 89.4187 61.6294 89.5365 61.7254C89.6543 61.8213 89.7292 61.9601 89.7448 62.1113C89.7457 62.1288 89.7466 62.1481 89.7466 62.1674Z" fill="#371A45"/>
<path d="M69.6763 28.0619C69.6763 28.0619 69.6216 25.3499 72.751 24.5316C74.7462 24.0096 77.0192 25.1331 77.0192 25.1331C77.0192 25.1331 81.2245 32.6052 81.2883 45.4156C81.2883 45.4156 77.714 49.4778 74.0751 45.7356C74.0751 45.7356 73.093 34.0591 69.6763 28.0619Z" fill="white"/>
<g opacity="0.35">
<path d="M77.0201 25.1326C77.0201 25.1326 81.2245 32.6039 81.2892 45.4156C81.2892 45.4156 78.9587 48.0639 76.1448 47.115C76.1601 47.11 76.1749 47.1047 76.1897 47.0997C77.6943 46.5656 78.6674 45.0929 78.6059 43.4976C78.1571 31.8848 74.379 25.1703 74.379 25.1703C73.8063 24.9059 73.2055 24.7072 72.5881 24.5779C72.6415 24.5617 72.6962 24.5455 72.7515 24.533C74.7457 24.0105 77.0201 25.1326 77.0201 25.1326Z" fill="#371A45"/>
</g>
<path d="M82.0365 44.3689C82.0372 44.8655 81.9191 45.355 81.6921 45.7967C81.4651 46.2384 81.1358 46.6195 80.7317 46.9081C78.6422 48.3992 76.4379 48.4791 74.5258 47.128C74.1639 46.8721 73.8606 46.542 73.6361 46.1598C73.4117 45.7775 73.2712 45.3518 73.2241 44.9111C72.9606 42.4698 71.9027 34.1152 69.3662 29.1014C68.9487 28.2764 68.9043 27.3316 69.245 26.5088C69.6359 25.5626 70.5283 24.3234 72.5562 23.7932C73.9028 23.4409 75.3189 23.7264 76.2705 24.0276C76.6813 24.1598 77.0603 24.3759 77.3833 24.6622C77.7063 24.9484 77.9664 25.2986 78.1472 25.6906C79.2383 28.0408 81.8018 34.5577 82.0338 44.2935L82.0365 44.3689ZM70.5458 27.6593C70.5471 27.9211 70.61 28.1789 70.7293 28.412C73.3103 33.5133 74.3961 41.5348 74.743 44.7468C74.7665 44.972 74.8377 45.1896 74.9519 45.3851C75.0661 45.5806 75.2205 45.7495 75.4051 45.8806C76.7853 46.8546 78.2778 46.7819 79.8443 45.6652C80.0555 45.5136 80.2264 45.3127 80.3422 45.08C80.458 44.8472 80.5151 44.5897 80.5086 44.3298C80.2842 34.8809 77.8155 28.5969 76.7633 26.3338C76.672 26.1334 76.5402 25.9542 76.3761 25.8074C76.212 25.6606 76.0192 25.5495 75.81 25.481C75.0509 25.2408 73.9373 25.0083 72.9431 25.2682C71.8026 25.5667 71.0332 26.1798 70.6566 27.0906C70.5829 27.271 70.5455 27.4643 70.5467 27.6593H70.5458Z" fill="#371A45"/>
<path d="M60.6938 83.4329C58.437 84.3001 54.737 74.2762 53.4273 69.9331C50.4527 60.0703 42.9177 57.8808 38.5167 61.0538C30.2541 67.0115 36.8626 88.448 43.0636 94.7697C45.2747 97.0239 50.7054 101.907 59.2646 100.687" fill="white"/>
<g opacity="0.35">
<path d="M53.4277 69.9322C54.6482 73.9881 57.9544 82.9912 60.2248 83.4666C56.3556 91.5083 52.0286 77.0569 50.8962 72.8798C48.6622 64.646 44.7401 60.3284 41.2978 59.845C45.6046 58.9837 51.0156 61.9353 53.4277 69.9322Z" fill="#371A45"/>
</g>
<g opacity="0.35">
<path d="M60.6817 82.4275L60.3993 83.485C60.3414 83.4855 60.2835 83.4793 60.227 83.4666C60.4003 83.1301 60.5522 82.7831 60.6817 82.4275Z" fill="#371A45"/>
</g>
<path d="M61.4573 83.4329C61.4574 83.5873 61.4106 83.7381 61.3232 83.8654C61.2358 83.9926 61.1118 84.0904 60.9676 84.1457C60.6687 84.2606 60.1893 84.3374 59.6053 84.0514C56.453 82.5069 52.8482 70.6571 52.6965 70.1535C51.2602 65.3893 48.5091 62.0045 45.1499 60.8666C42.9586 60.1242 40.7035 60.4178 38.9633 61.6746C36.9614 63.1176 35.7912 65.6631 35.486 69.2401C34.7584 77.7558 39.3349 89.8794 43.6103 94.2365C48.1254 98.84 53.3563 100.757 59.1556 99.9311C59.2548 99.917 59.3559 99.9226 59.453 99.9475C59.5501 99.9725 59.6414 100.016 59.7215 100.076C59.8017 100.137 59.8692 100.212 59.9203 100.298C59.9713 100.385 60.0048 100.48 60.0189 100.579C60.0331 100.679 60.0275 100.78 60.0026 100.877C59.9776 100.974 59.9338 101.065 59.8736 101.145C59.8134 101.226 59.738 101.293 59.6517 101.344C59.5654 101.395 59.4698 101.429 59.3706 101.443C53.0628 102.341 47.3928 100.276 42.5173 95.3043C37.9273 90.6245 33.1905 78.1624 33.9635 69.1085C34.3082 65.0688 35.6898 62.1512 38.0687 60.4348C40.2147 58.8876 42.9734 58.5182 45.6382 59.4204C49.471 60.7189 52.5758 64.47 54.1567 69.7127C55.8533 75.3387 58.6753 81.8965 60.2759 82.6806C60.3504 82.717 60.4021 82.7255 60.4187 82.7206C60.5343 82.6761 60.659 82.6604 60.782 82.6748C60.9051 82.6893 61.0227 82.7335 61.1249 82.8036C61.227 82.8738 61.3105 82.9677 61.3682 83.0774C61.4259 83.187 61.456 83.309 61.456 83.4329H61.4573Z" fill="#371A45"/>
<path d="M52.6301 14.1652C52.63 14.2883 52.596 14.409 52.5318 14.514C47.4979 22.7927 35.1161 25.8701 34.5901 25.9967C34.4181 26.0343 34.2383 26.0032 34.0891 25.9099C33.9398 25.8166 33.8331 25.6685 33.7916 25.4975C33.7502 25.3264 33.7774 25.1459 33.8674 24.9947C33.9574 24.8434 34.1031 24.7334 34.2732 24.6882C34.3966 24.6582 46.6405 21.6113 51.3814 13.8147C51.4577 13.689 51.5731 13.5918 51.7098 13.5379C51.8466 13.484 51.9972 13.4763 52.1388 13.516C52.2803 13.5557 52.405 13.6407 52.4937 13.7579C52.5824 13.8752 52.6303 14.0182 52.6301 14.1652Z" fill="#371A45"/>
<path d="M58.7745 81.2883V81.2932C58.7439 85.6471 56.5158 89.5616 52.6619 92.0276C48.9651 94.3936 44.547 94.9003 41.1312 93.3554C41.0507 93.3189 40.9781 93.2669 40.9177 93.2023C40.8572 93.1378 40.8101 93.062 40.7789 92.9792C40.7477 92.8965 40.7332 92.8084 40.7361 92.72C40.739 92.6316 40.7592 92.5447 40.7957 92.4642C40.8322 92.3836 40.8842 92.311 40.9487 92.2506C41.0133 92.1901 41.0891 92.143 41.1718 92.1118C41.2546 92.0807 41.3427 92.0661 41.431 92.069C41.5194 92.0719 41.6064 92.0921 41.6869 92.1286C44.6916 93.4896 48.6191 93.0165 51.9361 90.8938C55.3991 88.6778 57.4005 85.1749 57.4279 81.2838C57.4285 81.1052 57.5 80.9342 57.6267 80.8084C57.7534 80.6825 57.9249 80.6122 58.1034 80.6127C58.282 80.6133 58.453 80.6848 58.5789 80.8115C58.7047 80.9382 58.7751 81.1097 58.7745 81.2883Z" fill="#371A45"/>
<path d="M106.555 64.8224C106.555 64.9728 106.504 65.1188 106.412 65.2371C106.319 65.3555 106.189 65.4394 106.043 65.4755C100.319 66.8943 97.734 81.3758 97.2187 86.8353C97.2104 86.9233 97.1849 87.0088 97.1436 87.087C97.1023 87.1652 97.046 87.2345 96.9779 87.2909C96.9098 87.3473 96.8313 87.3897 96.7468 87.4158C96.6623 87.4419 96.5735 87.451 96.4855 87.4428C96.3974 87.4345 96.3119 87.409 96.2337 87.3677C96.1555 87.3264 96.0863 87.2701 96.0299 87.202C95.9734 87.1339 95.931 87.0554 95.9049 86.9709C95.8789 86.8864 95.8697 86.7976 95.8779 86.7096C95.9569 85.8693 97.8978 66.107 105.717 64.168C105.817 64.1433 105.92 64.1417 106.02 64.163C106.12 64.1844 106.214 64.2283 106.294 64.2913C106.375 64.3543 106.44 64.4349 106.485 64.5268C106.53 64.6188 106.553 64.7197 106.553 64.8219L106.555 64.8224Z" fill="#371A45"/>
<path d="M108.171 34.9922C108.171 35.4285 108.153 35.8329 108.117 36.2001C108.099 36.3778 108.011 36.5411 107.873 36.6541C107.734 36.7671 107.557 36.8205 107.379 36.8027C107.202 36.7848 107.038 36.6971 106.925 36.5589C106.812 36.4206 106.759 36.2431 106.777 36.0654C107.297 30.8425 103.853 17.8647 99.454 16.7812C99.3682 16.76 99.2873 16.7221 99.2161 16.6697C99.1449 16.6173 99.0847 16.5514 99.0389 16.4758C98.9932 16.4001 98.9628 16.3161 98.9495 16.2287C98.9362 16.1413 98.9402 16.0521 98.9614 15.9663C98.9826 15.8804 99.0204 15.7996 99.0728 15.7284C99.1252 15.6571 99.1912 15.5969 99.2668 15.5512C99.3425 15.5054 99.4264 15.4751 99.5139 15.4618C99.6013 15.4484 99.6904 15.4525 99.7763 15.4737C103.104 16.2937 105.267 21.4924 106.26 24.5186C107.44 28.1139 108.171 32.1936 108.171 34.9922Z" fill="#371A45"/>
<path d="M112.914 88.3699C112.873 88.2164 112.849 88.1114 112.825 87.9879C112.8 87.8645 112.78 87.7518 112.76 87.6333C112.723 87.3986 112.693 87.1643 112.675 86.9318C112.634 86.4691 112.616 86.0047 112.623 85.5403C112.642 84.6223 112.73 83.707 112.886 82.8023C113.045 81.9046 113.246 81.0176 113.544 80.1598C113.608 79.9435 113.693 79.7325 113.778 79.522C113.863 79.3115 113.944 79.101 114.036 78.8936C114.223 78.4793 114.432 78.0748 114.661 77.6817C114.65 78.1418 114.609 78.5879 114.565 79.0283C114.536 79.4771 114.482 79.9121 114.443 80.3502L114.325 81.6563C114.308 81.8731 114.28 82.0881 114.266 82.3045L114.225 82.9526C114.181 83.8149 114.159 84.674 114.187 85.5237C114.197 85.9483 114.221 86.3716 114.255 86.7881C114.269 86.9977 114.295 87.2033 114.315 87.4084L114.354 87.7105C114.365 87.8052 114.384 87.9179 114.394 87.9798L114.404 88.0395C114.432 88.2308 114.387 88.4256 114.277 88.5845C114.167 88.7435 114.001 88.8549 113.812 88.8961C113.623 88.9373 113.425 88.9052 113.259 88.8065C113.093 88.7078 112.971 88.5496 112.917 88.3641L112.914 88.3699Z" fill="#371A45"/>
<path d="M116.523 22.7981C115.515 22.4839 114.624 21.8349 113.871 21.0709C113.108 20.3038 112.524 19.3711 112.06 18.3863C111.859 17.8831 111.643 17.3782 111.513 16.8508C111.443 16.5886 111.354 16.3278 111.312 16.0603L111.175 15.2587C111.121 14.9894 111.109 14.72 111.092 14.4507C111.075 14.1814 111.058 13.9121 111.047 13.6428C111.047 13.1042 111.088 12.57 111.123 12.0363C111.142 11.8451 111.233 11.6681 111.377 11.5408C111.521 11.4135 111.707 11.3452 111.899 11.3496C112.092 11.3539 112.275 11.4306 112.413 11.5644C112.551 11.6981 112.634 11.879 112.644 12.0709V12.1517C112.652 12.6418 112.634 13.1302 112.632 13.6163C112.648 13.8584 112.661 14.1005 112.67 14.3425C112.673 14.5843 112.692 14.8255 112.727 15.0648L112.813 15.7829C112.826 15.9026 112.847 16.0212 112.877 16.138L112.948 16.4908C113.02 16.9706 113.191 17.4186 113.313 17.8867C113.635 18.8008 114.063 19.6744 114.586 20.4901C115.127 21.3414 115.779 22.1174 116.523 22.7981Z" fill="#371A45"/>
</svg>
