<svg width="92" height="148" viewBox="0 0 92 148" fill="none" xmlns="http://www.w3.org/2000/svg">
<path d="M61.576 67.6638H29.8448C24.9646 67.6638 21.0084 71.62 21.0084 76.5002V107.431C21.0084 112.311 24.9646 116.267 29.8448 116.267H61.576C66.4562 116.267 70.4124 112.311 70.4124 107.431V76.5002C70.4124 71.62 66.4562 67.6638 61.576 67.6638Z" fill="white"/>
<path d="M61.5755 117.152H29.8448C24.4847 117.152 20.1239 112.791 20.1239 107.431V76.5009C20.1239 71.1404 24.4847 66.7795 29.8448 66.7795H61.5755C66.936 66.7795 71.2964 71.1404 71.2964 76.5009V107.431C71.2964 112.791 66.936 117.152 61.5755 117.152ZM29.8448 68.5496C25.4601 68.5496 21.8929 72.1163 21.8929 76.5019V107.432C21.8929 111.816 25.4596 115.384 29.8448 115.384H61.5755C65.9606 115.384 69.5278 111.817 69.5278 107.432V76.5009C69.5278 72.1158 65.9611 68.5486 61.5755 68.5486L29.8448 68.5496Z" fill="#371A45"/>
<path d="M76.4224 99.2919C76.4224 99.2919 78.6024 106.092 71.4362 107.551C70.1451 107.816 68.911 107.708 67.8077 107.305C63.0521 105.552 60.7518 98.2195 66.9992 90.8826C67.3288 90.4936 67.6826 90.1065 68.0607 89.7175C68.0777 89.7028 68.0936 89.6869 68.1083 89.6699C68.1083 89.6699 67.7754 89.1216 66.7153 88.3474C66.0496 87.8633 65.0946 87.2883 63.7569 86.7067L61.1889 78.8462L61.1841 78.8329L60.729 77.4395L57.9517 68.9531C57.9517 68.9531 60.4964 69.8177 63.7493 71.2905C64.824 71.777 65.9782 72.332 67.1433 72.9445C67.4639 73.1124 67.7868 73.2869 68.1097 73.4638C68.1097 73.4638 68.8149 73.8443 69.9206 74.53C75.5731 78.0491 91.6399 89.6052 76.4224 99.2919Z" fill="white"/>
<g opacity="0.2">
<path d="M67.1419 72.9435C65.6915 74.6993 63.4801 76.2358 60.7276 77.4385L57.9503 68.9521C57.9503 68.9521 60.495 69.8167 63.7479 71.2895C64.8226 71.776 65.9749 72.331 67.1419 72.9435Z" fill="#371A45"/>
</g>
<path d="M39.1153 67.6628L30.6775 76.9015C28.1522 75.6408 26.1687 74.0777 24.9346 72.32C29.2396 69.6958 34.0927 68.1019 39.1153 67.6628Z" fill="#D8D8D8"/>
<path d="M63.3541 76.0899C59.182 78.6018 53.0787 80.1849 46.2772 80.1849C38.967 80.1849 32.4618 78.3564 28.2959 75.5131C28.4176 75.2544 28.5389 74.9975 28.6654 74.7388C28.6654 74.7388 26.339 61.3656 37.9787 56.8193C40.7097 56.2629 43.4902 55.9858 46.2772 55.9923C49.3042 55.9923 52.1922 56.3066 54.8345 56.8768C64.8445 61.4698 62.7154 74.7388 62.7154 74.7388C62.9342 75.1901 63.1486 75.641 63.3541 76.0899Z" fill="#D8D8D8"/>
<g opacity="0.2">
<path d="M62.9888 80.3099L63.7554 86.7043C67.227 88.2118 68.1087 89.6675 68.1087 89.6675C68.0925 89.6841 68.0759 89.7008 68.0612 89.715C68.9923 88.947 70.2416 88.0686 71.5532 87.575C71.5532 87.575 69.0803 86.291 68.3284 85.2976C65.9112 82.1199 65.8607 80.9733 64.9358 79.665C64.6367 79.2465 62.6493 79.607 62.9888 80.3099Z" fill="#371A45"/>
</g>
<g opacity="0.2">
<path d="M71.4367 107.553C78.5182 106.109 76.4724 99.4514 76.4248 99.293C76.4248 99.293 75.195 105.883 68.7931 104.075C64.6994 102.917 65.0456 97.1473 65.827 93.1398C65.7582 92.9812 65.7012 92.8178 65.6563 92.6509H65.6539C60.0009 101.055 65.0238 108.86 71.4367 107.553Z" fill="#371A45"/>
</g>
<path d="M70.0552 108.58C67.3164 108.58 64.8183 107.094 63.4297 104.535C61.5703 101.111 61.5593 95.4514 66.9089 89.6496C66.4428 89.2159 65.5597 88.5344 64.0313 87.8068C63.9249 87.7578 63.8294 87.6881 63.7502 87.6019C63.6709 87.5156 63.6096 87.4145 63.5698 87.3044C63.5299 87.1943 63.5124 87.0773 63.5181 86.9604C63.5238 86.8434 63.5527 86.7287 63.603 86.623C63.6534 86.5173 63.7243 86.4226 63.8115 86.3445C63.8988 86.2664 64.0007 86.2064 64.1113 86.1679C64.2219 86.1295 64.339 86.1134 64.4559 86.1206C64.5728 86.1278 64.6871 86.1582 64.7922 86.2099C67.8724 87.6765 68.774 89.0604 68.8668 89.2135L69.223 89.8022L68.7403 90.2921C63.4991 95.6183 63.3636 100.707 64.9833 103.692C66.2721 106.07 68.677 107.216 71.2579 106.688C73.1449 106.304 74.466 105.486 75.1855 104.257C76.3982 102.186 75.5878 99.5907 75.5798 99.565L75.3715 98.9154L75.9469 98.5487C80.0172 95.9574 82.0226 93.0546 81.9085 89.9206C81.6132 81.8333 67.8286 74.3199 67.6893 74.2448C62.8053 71.5498 57.7159 69.8116 57.665 69.7945C57.4449 69.7176 57.2641 69.5569 57.1618 69.3474C57.0596 69.1378 57.0442 68.8964 57.1191 68.6756C57.1939 68.4548 57.3529 68.2724 57.5614 68.1682C57.77 68.064 58.0113 68.0464 58.2328 68.1191C58.4463 68.1914 63.5172 69.922 68.5363 72.6916C69.1321 73.0121 83.3418 80.7566 83.6761 89.8541C83.8103 93.5121 81.7097 96.8196 77.4302 99.6924C77.656 100.807 77.9057 103.116 76.7121 105.151C75.7281 106.832 74.0118 107.932 71.6112 108.422C71.0992 108.527 70.5779 108.58 70.0552 108.58Z" fill="#371A45"/>
<path d="M76.5556 99.9972C75.2716 100.476 73.9091 100.798 72.531 100.774C73.0217 100.431 73.7084 99.9786 74.2068 99.6434C74.748 99.2843 75.3058 98.9162 75.8556 98.5872L76.5556 99.9972Z" fill="#371A45"/>
<path d="M81.2061 95.6368C81.1189 95.6366 81.0326 95.6193 80.9522 95.5857C80.8717 95.5521 80.7987 95.503 80.7372 95.4411C80.6758 95.3793 80.6271 95.3059 80.5941 95.2253C80.561 95.1446 80.5442 95.0582 80.5446 94.971C80.5484 93.4126 79.135 91.7406 76.9441 90.7124C74.31 89.476 70.3106 89.1454 66.985 91.9232C66.9184 91.9811 66.8409 92.0252 66.7571 92.0529C66.6733 92.0805 66.5848 92.0911 66.4968 92.0841C66.4088 92.0771 66.3231 92.0527 66.2447 92.0121C66.1663 91.9716 66.0968 91.9158 66.0402 91.8481C65.9836 91.7803 65.9411 91.702 65.9152 91.6176C65.8893 91.5332 65.8805 91.4445 65.8893 91.3567C65.8981 91.2689 65.9243 91.1837 65.9665 91.1061C66.0086 91.0286 66.0658 90.9602 66.1347 90.905C69.9391 87.7278 74.5045 88.1025 77.5077 89.5116C80.1637 90.7581 81.8762 92.9024 81.8709 94.9744C81.87 95.1502 81.7996 95.3186 81.6751 95.4427C81.5505 95.5668 81.3819 95.6366 81.2061 95.6368Z" fill="#371A45"/>
<path d="M67.4168 89.0471C68.7355 88.3813 70.1099 87.7873 71.5542 87.4949C70.3548 88.2558 69.3285 89.2502 68.385 90.2888L67.4178 89.0471H67.4168Z" fill="#371A45"/>
<path d="M45.0189 115.819C44.8819 118.028 44.7935 120.234 44.7359 122.386C44.7226 122.93 44.7093 123.471 44.6984 124.006C44.5148 133.444 44.871 141.495 44.1657 143.529C43.2013 146.298 40.6984 146.538 40.6984 146.538H32.1384C32.1384 146.538 26.2219 146.835 24.6488 145.388C23.0756 143.942 23.2311 141.888 24.3787 140.466C25.3607 139.246 27.1207 138.732 27.1207 138.732C27.1207 138.732 25.9319 129.927 24.7149 118.206C24.6673 117.73 24.6155 117.251 24.567 116.766C24.1956 113.144 23.8285 109.28 23.4946 105.33L45.0189 115.819Z" fill="white"/>
<g opacity="0.2">
<path d="M45.0189 115.819C44.882 118.028 44.7935 120.234 44.736 122.386C44.7227 122.93 44.7093 123.471 44.6984 124.006C34.987 124.577 28.4638 121.153 24.7159 118.205C24.6683 117.729 24.6165 117.25 24.568 116.765C24.1966 113.143 23.8294 109.278 23.4956 105.329L45.0189 115.819Z" fill="#371A45"/>
</g>
<g opacity="0.2">
<path d="M24.6488 145.388C26.2181 146.832 32.1365 146.537 32.1365 146.537H40.6965C40.6965 146.537 43.2008 146.295 44.1648 143.527C44.2856 143.181 44.3759 142.659 44.4425 141.982C43.3459 142.832 42.2345 142.939 42.2345 142.939H32.5559C32.5559 142.939 25.8686 143.272 24.091 141.638C23.9978 141.553 23.909 141.463 23.8251 141.369C23.2383 142.674 23.3881 144.229 24.6488 145.388Z" fill="#371A45"/>
</g>
<path d="M30.7621 147.456C28.7443 147.456 25.3778 147.261 24.051 146.04C22.2872 144.418 22.1355 141.841 23.6901 139.912C24.4129 139.015 25.4591 138.452 26.153 138.153C25.725 134.889 23.9064 120.678 22.6129 105.406C22.5932 105.172 22.6671 104.94 22.8185 104.761C22.9698 104.581 23.1862 104.47 23.42 104.45C23.6537 104.43 23.8858 104.504 24.065 104.655C24.2443 104.807 24.3561 105.023 24.3758 105.257C25.8391 122.537 27.9772 138.456 27.9986 138.615C28.027 138.825 27.9791 139.038 27.8636 139.215C27.7482 139.393 27.5728 139.523 27.3695 139.582C27.3566 139.586 25.8591 140.039 25.0673 141.022C24.2493 142.037 23.9882 143.579 25.248 144.738C26.1425 145.56 29.7886 145.768 32.0927 145.656C32.107 145.656 32.1217 145.656 32.1365 145.656H40.6423C40.8977 145.618 42.6178 145.286 43.3297 143.239C43.7496 142.032 43.7501 137.805 43.7511 132.91C43.7511 128 43.7511 121.888 44.1367 115.764C44.1514 115.53 44.2585 115.311 44.4345 115.156C44.6105 115.001 44.8409 114.922 45.075 114.936C45.3092 114.951 45.5279 115.058 45.6831 115.234C45.8383 115.41 45.9172 115.641 45.9025 115.875C45.522 121.943 45.522 128.024 45.522 132.911C45.522 138.584 45.522 142.332 45.0027 143.82C43.8657 147.088 40.9086 147.409 40.7836 147.421C40.7555 147.423 40.727 147.425 40.6989 147.425H32.1579C31.8954 147.437 31.3946 147.456 30.7621 147.456Z" fill="#371A45"/>
<path d="M36.4023 130.503C32.9083 130.503 28.8718 130.064 25.405 128.532C25.1978 128.433 25.0374 128.257 24.9578 128.042C24.8781 127.826 24.8854 127.588 24.9781 127.378C25.0708 127.168 25.2416 127.002 25.4545 126.916C25.6673 126.829 25.9054 126.829 26.1183 126.915C33.5746 130.209 44.3536 127.999 44.462 127.975C44.5757 127.951 44.693 127.95 44.8072 127.972C44.9214 127.993 45.0302 128.037 45.1275 128.1C45.2248 128.164 45.3086 128.246 45.3742 128.342C45.4398 128.438 45.4858 128.545 45.5097 128.659C45.5336 128.773 45.5348 128.89 45.5134 129.004C45.492 129.118 45.4482 129.227 45.3847 129.325C45.3212 129.422 45.2392 129.506 45.1433 129.571C45.0474 129.637 44.9395 129.683 44.8258 129.707C44.5648 129.759 40.9415 130.503 36.4023 130.503Z" fill="#371A45"/>
<path d="M26.9148 137.875C29.2399 137.489 31.524 137.68 33.8028 138.057C33.9135 138.077 34.0126 138.138 34.0801 138.228C34.1476 138.318 34.1784 138.43 34.1663 138.541C34.1542 138.653 34.1002 138.756 34.015 138.83C33.9299 138.903 33.82 138.941 33.7077 138.937C31.5801 138.865 29.3435 138.973 27.33 139.594C26.1221 139.927 25.687 138.133 26.9153 137.875H26.9148Z" fill="#371A45"/>
<path d="M46.3619 115.819C46.4993 118.028 46.5878 120.234 46.6472 122.386C46.6601 122.93 46.6734 123.471 46.6848 124.006C46.8684 133.444 46.5122 141.495 47.2174 143.529C48.1814 146.298 50.6847 146.538 50.6847 146.538H59.2448C59.2448 146.538 65.1598 146.835 66.732 145.389C68.3042 143.943 68.1497 141.888 67.0016 140.466C66.0201 139.246 64.26 138.733 64.26 138.733C64.26 138.733 65.4489 129.928 66.6659 118.206C66.7135 117.731 66.7653 117.251 66.8138 116.767C67.1852 113.145 67.5523 109.28 67.8862 105.331L46.3619 115.819Z" fill="white"/>
<g opacity="0.2">
<path d="M46.3619 115.819C46.4993 118.028 46.5878 120.234 46.6472 122.386C46.6601 122.93 46.6734 123.471 46.6848 124.006C56.3962 124.577 62.919 121.153 66.6673 118.205C66.7149 117.729 66.7667 117.25 66.8152 116.765C67.1866 113.143 67.5538 109.278 67.8876 105.329L46.3619 115.819Z" fill="#371A45"/>
</g>
<g opacity="0.2">
<path d="M66.7325 145.388C65.1631 146.832 59.2453 146.537 59.2453 146.537H50.6852C50.6852 146.537 48.1809 146.295 47.2169 143.527C47.0957 143.181 47.0058 142.659 46.9392 141.982C48.0359 142.832 49.1468 142.939 49.1468 142.939H58.8253C58.8253 142.939 65.5131 143.272 67.2903 141.638C67.3835 141.553 67.4722 141.463 67.5561 141.369C68.143 142.674 67.9932 144.229 66.7325 145.388Z" fill="#371A45"/>
</g>
<path d="M60.6192 147.456C59.9862 147.456 59.4859 147.437 59.2229 147.424H50.6843C50.6562 147.424 50.6277 147.424 50.5996 147.42C50.4745 147.408 47.517 147.087 46.3805 143.819C45.8626 142.331 45.8621 138.583 45.8611 132.91C45.8611 128.023 45.8611 121.942 45.4807 115.874C45.466 115.64 45.5449 115.409 45.7001 115.233C45.8553 115.057 46.074 114.95 46.3082 114.935C46.5423 114.921 46.7727 115 46.9487 115.155C47.1246 115.31 47.2317 115.529 47.2464 115.763C47.6302 121.887 47.6312 127.999 47.6321 132.909C47.6321 137.804 47.6321 142.031 48.053 143.238C48.7616 145.274 50.4665 145.613 50.7428 145.655H59.2467C59.2614 145.655 59.2762 145.655 59.2905 145.655C61.5941 145.767 65.2407 145.56 66.1352 144.737C67.3949 143.578 67.1338 142.036 66.3159 141.021C65.5241 140.038 64.0265 139.585 64.0113 139.581C63.8088 139.521 63.6345 139.39 63.5196 139.213C63.4047 139.036 63.3568 138.823 63.3845 138.614C63.4059 138.455 65.5441 122.536 67.0074 105.256C67.0271 105.022 67.1389 104.806 67.3181 104.654C67.4974 104.503 67.7295 104.429 67.9632 104.449C68.197 104.469 68.4134 104.58 68.5647 104.76C68.716 104.939 68.79 105.171 68.7703 105.405C67.4767 120.677 65.6577 134.889 65.2302 138.152C65.924 138.451 66.9703 139.014 67.6931 139.911C69.2477 141.84 69.096 144.417 67.3322 146.039C66.0035 147.261 62.637 147.456 60.6192 147.456Z" fill="#371A45"/>
<path d="M54.979 130.503C50.4389 130.503 46.8165 129.761 46.5545 129.706C46.4408 129.682 46.3329 129.636 46.237 129.57C46.1411 129.505 46.0591 129.421 45.9956 129.324C45.9321 129.226 45.8884 129.118 45.8669 129.003C45.8455 128.889 45.8468 128.772 45.8706 128.658C45.8945 128.544 45.9406 128.437 46.0062 128.341C46.0717 128.245 46.1556 128.163 46.2528 128.099C46.3501 128.036 46.459 127.992 46.5731 127.971C46.6873 127.949 46.8046 127.95 46.9183 127.974C47.0263 127.997 57.8167 130.203 65.2616 126.914C65.3686 126.861 65.4854 126.83 65.6047 126.823C65.724 126.817 65.8435 126.834 65.9559 126.875C66.0683 126.915 66.1713 126.979 66.2587 127.06C66.346 127.142 66.4159 127.24 66.4642 127.35C66.5124 127.459 66.538 127.577 66.5394 127.696C66.5407 127.816 66.5179 127.935 66.4722 128.045C66.4264 128.155 66.3588 128.255 66.2733 128.339C66.1879 128.423 66.0863 128.488 65.9749 128.531C62.5095 130.061 58.4725 130.503 54.979 130.503Z" fill="#371A45"/>
<path d="M64.0517 139.593C62.0378 138.972 59.8017 138.864 57.674 138.936C57.1271 138.955 57.0406 138.153 57.5789 138.056C59.8578 137.679 62.1414 137.486 64.4669 137.874C65.6924 138.131 65.2635 139.923 64.0522 139.593H64.0517Z" fill="#371A45"/>
<path d="M60.6192 147.456C59.9862 147.456 59.4859 147.437 59.2229 147.424H50.6843C50.6562 147.424 50.6277 147.424 50.5996 147.42C50.4745 147.408 47.517 147.087 46.3805 143.819C45.8626 142.331 45.8621 138.583 45.8611 132.91C45.8611 128.023 45.8611 121.942 45.4807 115.874C45.466 115.64 45.5449 115.409 45.7001 115.233C45.8553 115.057 46.074 114.95 46.3082 114.935C46.5423 114.921 46.7727 115 46.9487 115.155C47.1246 115.31 47.2317 115.529 47.2464 115.763C47.6302 121.887 47.6312 127.999 47.6321 132.909C47.6321 137.804 47.6321 142.031 48.0535 143.238C48.7616 145.274 50.4669 145.613 50.7432 145.655H59.2467C59.2614 145.655 59.2762 145.655 59.2905 145.655C61.5945 145.768 65.2407 145.56 66.1352 144.737C67.3949 143.578 67.1338 142.036 66.3159 141.021C65.5241 140.038 64.0265 139.585 64.0113 139.581C63.8088 139.521 63.6345 139.39 63.5196 139.213C63.4047 139.036 63.3568 138.823 63.3845 138.614C63.4059 138.455 65.5441 122.536 67.0074 105.256C67.0271 105.022 67.1389 104.806 67.3181 104.654C67.4974 104.503 67.7295 104.429 67.9632 104.449C68.197 104.469 68.4134 104.58 68.5647 104.76C68.716 104.939 68.79 105.171 68.7703 105.405C67.4767 120.677 65.6577 134.889 65.2302 138.152C65.924 138.451 66.9703 139.014 67.6931 139.911C69.2477 141.84 69.096 144.417 67.3326 146.039C66.0035 147.261 62.637 147.456 60.6192 147.456Z" fill="#371A45"/>
<path d="M62.7164 74.7385C68.2804 86.2508 70.7837 96.7864 69.0855 104.976C68.4797 107.898 67.4686 110.303 66.1746 112.28C63.3807 116.539 59.2524 118.807 54.9514 119.962C51.808 120.806 48.5709 121.056 45.6928 121.056C43.4771 121.056 41.0485 120.907 38.6131 120.454C37.9302 120.326 37.2468 120.175 36.5682 119.997C32.7338 118.988 29.0282 117.105 26.2705 113.726C24.4633 111.511 23.0614 108.652 22.2991 104.976C20.6008 96.7859 23.1037 86.2504 28.6682 74.738" fill="white"/>
<path d="M69.6077 99.2919C69.6277 101.289 69.4569 103.188 69.0846 104.977C69.0009 105.386 68.9082 105.785 68.8064 106.173C68.1915 108.563 67.2893 110.58 66.1727 112.28C63.3798 116.539 59.2514 118.806 54.9495 119.962C51.8051 120.807 48.568 121.056 45.6914 121.056C43.4757 121.056 41.0456 120.908 38.6112 120.454C37.9279 120.326 37.2445 120.176 36.5663 119.997C32.73 118.988 29.0259 117.104 26.2667 113.726C24.6498 111.742 23.3567 109.242 22.554 106.101C22.4589 105.734 22.3747 105.361 22.2953 104.976C21.9239 103.187 21.7536 101.288 21.7722 99.291C21.8345 92.14 24.3131 83.7354 28.6649 74.7379C28.6649 74.7379 25.4311 56.133 45.6899 55.3526C65.9487 54.5723 62.7149 74.7379 62.7149 74.7379C67.0687 83.7364 69.5454 92.1409 69.6077 99.2919Z" fill="white"/>
<g opacity="0.2">
<path d="M63.3541 76.0899C59.182 78.6018 53.0787 80.1849 46.2772 80.1849C38.967 80.1849 32.4618 78.3564 28.2959 75.5131C28.4176 75.2544 28.5389 74.9975 28.6654 74.7388C28.6654 74.7388 26.339 61.3656 37.9787 56.8193C40.7097 56.2629 43.4902 55.9858 46.2772 55.9923C49.3042 55.9923 52.1922 56.3066 54.8345 56.8768C64.8445 61.4698 62.7154 74.7388 62.7154 74.7388C62.9342 75.1901 63.1486 75.641 63.3541 76.0899Z" fill="#371A45"/>
</g>
<g opacity="0.2">
<path d="M69.0855 104.977C68.4797 107.898 67.4715 110.303 66.1737 112.281C63.3807 116.539 59.2524 118.806 54.9505 119.962C51.8061 120.807 48.5689 121.056 45.6923 121.056C43.4767 121.056 41.0466 120.908 38.6122 120.454C37.9288 120.326 37.2454 120.176 36.5673 119.997C32.7309 118.988 29.0268 117.105 26.2676 113.726C24.4605 111.51 23.059 108.651 22.2962 104.975C21.8273 102.716 21.678 100.277 21.8273 97.6875C21.895 98.904 22.0518 100.114 22.2962 101.307C23.0571 104.984 24.461 107.841 26.2676 110.058C29.0258 113.437 32.7309 115.321 36.5673 116.329C37.2459 116.508 37.9293 116.659 38.6122 116.786C41.0466 117.24 43.4767 117.388 45.6923 117.388C48.5689 117.388 51.8061 117.138 54.9505 116.294C59.2533 115.14 63.3817 112.87 66.1737 108.613C67.4715 106.636 68.4797 104.23 69.0855 101.309C69.3302 100.116 69.4869 98.9059 69.5544 97.6894C69.7028 100.278 69.5544 102.717 69.0855 104.977Z" fill="#371A45"/>
</g>
<path d="M25.9243 114.007C24.2232 112.622 23.1384 110.638 22.3785 108.615C20.0511 102.558 20.5333 95.7961 22.1883 89.6404C22.2466 89.4155 22.391 89.2226 22.5904 89.1033C22.7898 88.984 23.0281 88.9479 23.2538 89.0029C23.4795 89.0579 23.6746 89.1994 23.7968 89.397C23.919 89.5946 23.9586 89.8324 23.9069 90.0589C23.6987 91.0614 23.4989 92.0634 23.3301 93.0687C22.6995 97.0496 22.4651 101.149 23.3016 105.103C23.8613 108.099 25.2166 110.76 26.611 113.449C26.8364 113.872 26.2981 114.318 25.9257 114.009L25.9243 114.007Z" fill="#371A45"/>
<path d="M55.0642 120.389C50.1184 122.271 43.841 122.361 38.7149 121.143C37.9507 120.931 37.1931 120.688 36.4527 120.425C36.3978 120.405 36.3473 120.375 36.3041 120.337C36.2609 120.298 36.2257 120.251 36.2007 120.198C36.1756 120.146 36.1612 120.089 36.1582 120.031C36.1551 119.972 36.1636 119.914 36.183 119.859C36.2186 119.761 36.2875 119.678 36.3778 119.625C36.4682 119.572 36.5743 119.552 36.6776 119.569C37.4466 119.635 38.1947 119.76 38.9475 119.844C42.7172 120.235 46.5226 120.265 50.3029 120.026C51.8151 119.921 53.3203 119.752 54.8368 119.535C55.3485 119.461 55.5502 120.197 55.0642 120.391V120.389Z" fill="#371A45"/>
<path d="M65.3443 79.5001C69.8003 88.6213 72.9627 100.718 68.2057 110.291C67.4881 111.665 66.5827 112.952 65.457 114.007C65.0818 114.35 64.5021 113.891 64.7717 113.447C71.3925 103.135 68.2048 90.64 64.5273 79.8396C64.3599 79.3331 65.0894 79.005 65.3443 79.5001Z" fill="#371A45"/>
<g opacity="0.2">
<path d="M59.7674 99.2919V94.0018C59.7652 93.2432 59.4628 92.5163 58.9264 91.9799C58.39 91.4435 57.6632 91.1412 56.9046 91.1389H34.2984C33.5398 91.1412 32.8129 91.4435 32.2765 91.9799C31.7401 92.5163 31.4378 93.2432 31.4355 94.0018V99.2919H21.7727L22.5535 106.102C25.3065 105.73 28.3805 105.332 31.4355 104.972V108.424C31.4378 109.182 31.7401 109.909 32.2765 110.445C32.8129 110.982 33.5398 111.284 34.2984 111.286H56.9046C57.6632 111.284 58.39 110.982 58.9264 110.445C59.4628 109.909 59.7652 109.182 59.7674 108.424V104.925C62.9061 105.321 66.0562 105.765 68.8069 106.173C68.9086 105.784 69.0015 105.385 69.0855 104.977C69.457 103.188 69.6277 101.289 69.6087 99.2919H59.7674Z" fill="#371A45"/>
</g>
<path d="M58.2808 96.9328C58.2808 96.9328 65.8479 96.3559 69.0332 98.6491C72.4178 101.086 69.0075 103.906 69.0075 103.906C69.0075 103.906 62.9133 102.574 57.7953 102.765L58.2808 96.9328Z" fill="white"/>
<g opacity="0.2">
<path d="M69.0085 103.907C69.0085 103.907 62.9118 102.575 57.7953 102.766L57.9789 100.55C61.536 100.441 65.5226 101.047 67.5909 101.42C68.6903 101.618 69.8051 101.064 70.2621 100.044C70.2668 100.034 70.2711 100.024 70.2754 100.015C71.2769 102.029 69.0085 103.907 69.0085 103.907Z" fill="#371A45"/>
</g>
<path d="M33.732 96.9328C33.732 96.9328 26.1649 96.3559 22.9796 98.6491C19.5946 101.086 23.0048 103.906 23.0048 103.906C23.0048 103.906 29.0996 102.574 34.2175 102.765L33.732 96.9328Z" fill="white"/>
<path d="M69.2396 104.862L68.8192 104.77C68.7593 104.757 62.7692 103.467 57.8276 103.649L56.8289 103.686L57.4624 96.1082L58.2138 96.0506C58.5362 96.0264 66.1423 95.4771 69.5502 97.9315C70.7481 98.7941 71.3754 99.8175 71.4139 100.975C71.4814 102.986 69.6495 104.524 69.5716 104.589L69.2396 104.862ZM58.8377 101.862C62.9599 101.862 67.3188 102.662 68.7327 102.946C69.134 102.518 69.6728 101.766 69.6453 101.028C69.6239 100.45 69.2439 99.8912 68.5163 99.3672C66.3701 97.8216 61.536 97.6766 59.1002 97.7726L58.7597 101.862L58.8377 101.862Z" fill="#371944"/>
<path d="M22.7704 104.862L22.4375 104.588C22.3595 104.523 20.5281 102.985 20.5952 100.973C20.6337 99.8169 21.2609 98.7935 22.4589 97.9299C25.8667 95.476 33.4728 96.0243 33.7952 96.049L34.5471 96.1066L35.1777 103.685L34.179 103.648C29.2361 103.466 23.2474 104.756 23.1874 104.768L22.7704 104.862ZM31.7042 97.7501C29.1167 97.7501 25.3232 98.0497 23.4937 99.367C22.7661 99.8901 22.3861 100.449 22.3647 101.028C22.3371 101.766 22.8755 102.514 23.2778 102.946C24.6916 102.66 29.0511 101.862 33.1723 101.862H33.2522L32.9117 97.772C32.5555 97.7587 32.1474 97.7501 31.7042 97.7501Z" fill="#371944"/>
<path d="M58.7697 94.6779V105.453C58.7697 107.453 57.1947 109.089 55.271 109.089H36.1645C34.239 109.089 32.6663 107.453 32.6663 105.453V94.6779C32.6663 92.6806 34.239 91.0447 36.1645 91.0447H55.271C56.8076 91.0447 58.1244 92.0909 58.589 93.5285C58.7086 93.9 58.7695 94.2877 58.7697 94.6779Z" fill="white"/>
<g opacity="0.2">
<path d="M58.7697 94.678V105.453C58.7697 107.453 57.1947 109.089 55.271 109.089H36.1645C34.239 109.089 32.6663 107.453 32.6663 105.453V101.827C35.9629 103.722 42.4932 106.567 49.0479 104.219C52.2498 103.072 55.9206 99.1378 55.9206 99.1378C55.9206 99.1378 56.0633 103.265 56.652 103.2C58.2913 103.019 58.2794 94.668 58.589 93.5291C58.7085 93.9003 58.7695 94.288 58.7697 94.678Z" fill="#371A45"/>
</g>
<path d="M55.4013 109.972H36.0332C34.9058 109.971 33.8249 109.523 33.0277 108.725C32.2305 107.928 31.782 106.847 31.7808 105.72V94.4129C31.782 93.2854 32.2305 92.2045 33.0277 91.4073C33.8249 90.6101 34.9058 90.1617 36.0332 90.1604H55.4013C56.5288 90.1617 57.6097 90.6101 58.4069 91.4073C59.2041 92.2045 59.6525 93.2854 59.6538 94.4129V105.72C59.6525 106.847 59.2041 107.928 58.4069 108.725C57.6097 109.523 56.5288 109.971 55.4013 109.972ZM36.0332 91.9295C35.3748 91.9302 34.7435 92.1921 34.2779 92.6577C33.8123 93.1232 33.5503 93.7544 33.5494 94.4129V105.72C33.5503 106.378 33.8123 107.009 34.2779 107.475C34.7435 107.94 35.3748 108.202 36.0332 108.203H55.4013C56.0598 108.202 56.691 107.94 57.1567 107.475C57.6223 107.009 57.8843 106.378 57.8852 105.72V94.4129C57.8843 93.7544 57.6223 93.1232 57.1567 92.6577C56.691 92.1921 56.0598 91.9302 55.4013 91.9295H36.0332Z" fill="#371944"/>
<path d="M52.4862 103.2C54.1526 103.2 55.5036 101.797 55.5036 100.066C55.5036 98.3355 54.1526 96.9326 52.4862 96.9326C50.8197 96.9326 49.4687 98.3355 49.4687 100.066C49.4687 101.797 50.8197 103.2 52.4862 103.2Z" fill="#22A7F0"/>
<path d="M55.5041 100.067C55.5047 100.276 55.4848 100.485 55.4446 100.69C55.1659 99.2548 53.9466 98.1748 52.4857 98.1748C51.0248 98.1748 49.8054 99.2548 49.5287 100.69C49.4887 100.485 49.4688 100.276 49.4692 100.067C49.4692 98.3369 50.8193 96.9326 52.4857 96.9326C54.1521 96.9326 55.5041 98.3365 55.5041 100.067Z" fill="white"/>
<path d="M55.5031 100.068C55.5031 101.8 54.1516 103.201 52.4862 103.201C50.8208 103.201 49.4692 101.8 49.4692 100.068C49.4691 99.7843 49.5059 99.5021 49.5786 99.2283C49.9334 100.55 51.1004 101.52 52.4862 101.52C53.8719 101.52 55.039 100.55 55.3937 99.2283C55.4664 99.5021 55.5032 99.7843 55.5031 100.068Z" fill="#1C7AEA"/>
<path d="M52.4861 103.863C50.4565 103.863 48.8053 102.16 48.8053 100.066C48.8053 97.9723 50.4565 96.2693 52.4861 96.2693C54.5158 96.2693 56.167 97.9727 56.167 100.066C56.167 102.16 54.5139 103.863 52.4861 103.863ZM52.4861 97.5961C51.1883 97.5961 50.1321 98.7042 50.1321 100.066C50.1321 101.428 51.1883 102.536 52.4861 102.536C53.7839 102.536 54.8402 101.428 54.8402 100.066C54.8402 98.7042 53.7839 97.5947 52.4861 97.5947V97.5961Z" fill="#371944"/>
<path d="M42.9364 109.972C42.7019 109.972 42.4769 109.879 42.311 109.713C42.1451 109.547 42.0519 109.322 42.0519 109.088V103.571C42.0519 102.484 41.5554 101.446 40.7237 100.795L40.2386 100.415C38.9812 99.4319 38.2308 97.873 38.2308 96.2452V91.0449C38.2308 90.8104 38.324 90.5854 38.4899 90.4195C38.6558 90.2536 38.8807 90.1604 39.1153 90.1604C39.3499 90.1604 39.5749 90.2536 39.7408 90.4195C39.9067 90.5854 39.9999 90.8104 39.9999 91.0449V96.2485C39.9999 97.3366 40.4964 98.3743 41.3281 99.0244L41.8132 99.4048C43.0706 100.388 43.821 101.947 43.821 103.574V109.091C43.8202 109.325 43.7267 109.549 43.5609 109.714C43.3951 109.879 43.1706 109.972 42.9364 109.972Z" fill="#371944"/>
<path d="M45.9016 90.1397C46.3634 92.8594 46.0076 94.5357 45.3709 95.6875C44.9528 96.4484 44.4088 96.9834 43.9004 97.4366C41.9212 99.201 35.6966 99.6718 35.6966 99.6718C35.6966 99.6718 23.6659 104.823 16.2315 101.214C11.2766 98.8053 10.0492 91.845 12.223 86.4027C12.3908 85.9847 12.5877 85.5467 12.8155 85.0873C12.8159 85.0851 12.8159 85.0829 12.8155 85.0807C15.9956 78.6682 24.9394 68.9302 39.1139 67.6628L27.1688 80.7407L25.3018 85.8482C30.2571 85.7973 33.7287 85.667 34.7259 85.2115C35.7232 84.7559 35.4269 81.2867 36.3933 79.9575C36.9349 79.2104 39.0312 79.2479 39.697 80.696C40.4797 82.408 39.3693 84.4001 40.4132 85.1715C41.1893 85.7465 43.9799 84.8048 45.6115 86.2948C46.5317 87.1346 46.2868 89.0563 45.9016 90.1397Z" fill="white"/>
<g opacity="0.2">
<path d="M39.1153 67.6628L30.6775 76.9015C28.1522 75.6408 26.1687 74.0777 24.9346 72.32C29.2396 69.6958 34.0927 68.1019 39.1153 67.6628Z" fill="#371A45"/>
</g>
<g opacity="0.2">
<path d="M45.3709 95.6879C44.9528 96.4487 44.4088 96.9838 43.9004 97.437C41.9212 99.2013 35.6966 99.6721 35.6966 99.6721C35.6966 99.6721 23.6659 104.823 16.2315 101.214C11.2766 98.8056 10.0492 91.8453 12.223 86.403C12.3908 85.985 12.5877 85.547 12.8155 85.0876C12.7313 85.4148 9.62927 97.6933 18.3796 100.068C26.2363 102.201 32.4784 97.202 35.0032 96.9343C37.0942 96.7117 41.7618 98.8189 45.3709 95.6879Z" fill="#371A45"/>
</g>
<path d="M39.1938 68.5452C30.5386 69.2752 22.359 73.7388 16.8977 80.4727C15.1162 82.6831 13.5122 85.1175 12.6609 87.8348C11.5143 91.7101 11.9328 96.4966 15.0016 99.3262C18.1608 102.045 23.1085 101.84 27.0161 101.225C29.8704 100.736 32.664 99.9425 35.3489 98.8573C35.4388 98.8206 35.5337 98.7973 35.6304 98.7884C36.967 98.6744 38.2954 98.4785 39.608 98.2015C40.7997 97.9343 42.167 97.5833 43.1338 96.9175C45.3171 95.2968 45.4716 92.8453 45.0298 90.2873C45.0046 90.138 45.0181 89.9848 45.0688 89.8421C45.3275 89.0755 45.4792 88.1273 45.2548 87.3597C45.1796 87.1576 45.1278 87.0378 44.9647 86.9056C44.6085 86.5936 44.1087 86.4181 43.5256 86.3349C41.9463 86.0776 39.589 86.8794 39.1148 84.6153C38.8014 83.133 39.8757 80.5592 37.7038 80.3633C37.4561 80.3514 37.2131 80.4056 37.1046 80.4836C37.035 80.5853 36.9771 80.6946 36.932 80.8094C36.3499 82.2361 36.5991 84.095 35.7132 85.4965C35.3099 86.1242 34.3317 86.2674 33.7025 86.3634C32.2482 86.5603 30.8677 86.6012 29.47 86.654C28.0315 86.6882 26.5986 86.7387 25.1672 86.722C24.5965 86.6935 24.2227 86.0562 24.47 85.5436L26.7527 80.5906C26.9867 80.1032 27.7214 80.3752 27.5835 80.895L26.1306 86.1513L25.2908 84.9624C26.6699 84.9477 28.0448 84.9277 29.4139 84.8854C31.0731 84.7903 32.8056 84.8421 34.3464 84.4098C34.365 84.4027 34.3426 84.4098 34.334 84.417C34.3255 84.4241 34.2637 84.4712 34.2836 84.4512C34.4544 84.1659 34.5214 83.7464 34.5999 83.3503C34.8543 82.0615 34.8705 80.6496 35.6704 79.4431C36.1355 78.7859 37.0809 78.5557 37.7757 78.5957C39.8952 78.687 40.9619 80.4137 40.8806 82.3806C40.9096 83.0545 40.6975 83.8582 40.9001 84.4227C40.9086 84.4398 40.9538 84.4674 40.9048 84.4384C41.0118 84.4897 41.4013 84.4973 41.5873 84.5007C43.15 84.4669 45.2058 84.5007 46.3852 85.8251C47.4523 87.1258 47.206 88.9638 46.7323 90.438L46.7713 89.9929C47.1413 92.1301 47.1732 94.7328 45.8131 96.6507C45.355 97.2952 44.8028 97.8672 44.1748 98.3475C43.479 98.8469 42.7757 99.1179 42.0771 99.3657C40.0127 100.041 37.914 100.353 35.7617 100.555L36.0432 100.486C33.229 101.626 30.2996 102.458 27.3062 102.969C22.8284 103.673 17.4622 103.795 13.8208 100.642C10.1961 97.3203 9.63588 91.8248 10.9674 87.3236C13.7509 79.0222 22.0737 71.779 30.1605 68.8015C33.0077 67.7177 36.0099 67.0681 39.0364 66.7818C39.1528 66.7701 39.2704 66.7815 39.3823 66.8156C39.4943 66.8496 39.5984 66.9055 39.6886 66.98C39.7788 67.0545 39.8533 67.1462 39.9078 67.2498C39.9623 67.3533 39.9958 67.4666 40.0062 67.5832C40.0166 67.6997 40.0038 67.8172 39.9685 67.9287C39.9332 68.0403 39.8761 68.1437 39.8005 68.2331C39.725 68.3224 39.6324 68.3959 39.5283 68.4492C39.4241 68.5026 39.3104 68.5347 39.1938 68.5438V68.5452Z" fill="#371A45"/>
<path d="M17.1383 87.8933C17.1383 87.8933 19.2308 86.2288 25.3027 85.8484L17.1383 87.8933Z" fill="white"/>
<path d="M16.8625 87.5461C18.0766 86.6425 19.519 86.1632 20.9523 85.7599C22.3167 85.3795 23.8399 85.1345 25.2471 84.9652C26.4707 84.853 26.6148 86.6506 25.384 86.7301C23.333 86.7629 21.2039 86.9255 19.2317 87.4976C18.5897 87.6878 17.9377 87.918 17.368 88.2652C16.9034 88.5424 16.444 87.8895 16.862 87.5461H16.8625Z" fill="#371A45"/>
<path d="M18.1779 102.603C18.0718 102.603 17.9671 102.578 17.8729 102.529C17.7786 102.481 17.6974 102.41 17.6362 102.323C15.6023 99.4503 15.0877 96.5166 16.1068 93.6038C17.7917 88.7878 23.0024 85.8236 25.1182 85.2106C25.2042 85.1776 25.2962 85.1629 25.3882 85.1673C25.4803 85.1717 25.5704 85.1951 25.6529 85.2361C25.7354 85.2772 25.8085 85.3349 25.8676 85.4056C25.9266 85.4764 25.9704 85.5586 25.996 85.6471C26.0216 85.7356 26.0286 85.8285 26.0165 85.9199C26.0044 86.0112 25.9734 86.099 25.9256 86.1778C25.8778 86.2566 25.8141 86.3246 25.7387 86.3775C25.6632 86.4304 25.5776 86.467 25.4872 86.4851C23.3596 87.1033 18.7909 89.9496 17.359 94.0422C16.4901 96.5261 16.9476 99.0541 18.7186 101.556C18.7889 101.655 18.8305 101.772 18.839 101.893C18.8475 102.014 18.8225 102.136 18.7666 102.244C18.7108 102.352 18.6264 102.442 18.5225 102.506C18.4187 102.569 18.2995 102.602 18.1779 102.602V102.603Z" fill="#371A45"/>
<path d="M80.595 28.0352C80.595 28.0352 88.6458 31.0873 89.4732 32.5777C91.0074 35.3407 90.7225 51.582 86.4772 55.8159C84.8156 57.4742 72.6075 59.0235 72.6075 59.0235L80.595 28.0352Z" fill="white"/>
<g opacity="0.2">
<path d="M72.6094 59.0233C72.6094 59.0233 84.8175 57.4734 86.4782 55.8152C88.1388 54.1569 89.1889 50.6791 89.7638 46.8818C89.6292 47.0035 85.3173 50.7248 76.7159 43.1605L76.7002 43.1472L72.6094 59.0233Z" fill="#371A45"/>
</g>
<path d="M45.6942 44.9858V45.125L45.6053 45.0566L45.6942 44.9858Z" fill="#D8D8D8"/>
<path d="M45.6058 45.0566L45.5173 45.125V44.9858L45.6058 45.0566Z" fill="#D8D8D8"/>
<path d="M19.0153 59.0236C19.0153 59.0236 6.80727 57.4737 5.14662 55.8154C3.48597 54.1572 2.43593 50.6794 1.86098 46.8821C0.96122 40.9556 1.21993 34.265 2.15535 32.5801C2.98235 31.0897 11.0331 28.0356 11.0331 28.0356L14.927 43.1494L19.0153 59.0236Z" fill="white"/>
<g opacity="0.2">
<path d="M19.0153 59.0233C19.0153 59.0233 6.80726 57.4734 5.14661 55.8152C3.48596 54.1569 2.43592 50.6791 1.86097 46.8818C1.99602 47.0035 6.30744 50.7248 14.9094 43.1605C14.9136 43.1563 14.9203 43.1515 14.9246 43.1472L19.0153 59.0233Z" fill="#371A45"/>
</g>
<path d="M71.4277 60.065L79.9849 26.8577L80.9084 27.2077C83.4198 28.1588 89.3581 30.5475 90.2465 32.1483C91.9466 35.2109 91.7307 51.825 87.104 56.4422C85.3187 58.2232 74.8094 59.6356 72.7207 59.9009L71.4277 60.065ZM81.2032 29.2188L73.7931 57.974C79.2872 57.2131 85.0163 56.028 85.8542 55.19C89.7733 51.2795 90.0743 35.4824 88.7 33.0071C88.2872 32.3275 84.6587 30.5884 81.2032 29.2188Z" fill="#371A45"/>
<path d="M20.1981 60.065L18.905 59.9009C16.8164 59.6356 6.30699 58.2232 4.52222 56.4422C-0.104972 51.825 -0.32088 35.2109 1.37924 32.1483C2.26806 30.5475 8.2059 28.1602 10.7173 27.2077L11.6409 26.8577L20.1981 60.065ZM10.423 29.2193C6.96659 30.586 3.33712 32.328 2.92481 33.0085C1.55187 35.4815 1.85243 51.2795 5.77151 55.19C6.61087 56.028 12.3385 57.2131 17.8326 57.974L10.423 29.2193Z" fill="#371A45"/>
<path d="M45.8098 75.5411C66.4255 75.5411 83.1378 58.8288 83.1378 38.2131C83.1378 17.5973 66.4255 0.88501 45.8098 0.88501C25.194 0.88501 8.4817 17.5973 8.4817 38.2131C8.4817 58.8288 25.194 75.5411 45.8098 75.5411Z" fill="white"/>
<g opacity="0.2">
<path d="M83.1388 38.212C83.1388 58.828 66.4267 75.5401 45.8107 75.5401C25.1947 75.5401 8.47932 58.828 8.47932 38.212C8.47786 36.0723 8.66051 33.9365 9.02526 31.8281C12.0536 49.4015 27.3704 62.7699 45.8098 62.7699C64.2491 62.7699 79.5635 49.4015 82.5919 31.8281C82.9569 33.9365 83.1399 36.0723 83.1388 38.212Z" fill="#371A45"/>
</g>
<path d="M45.8112 76.4257C24.7406 76.4257 7.5986 59.2837 7.5986 38.2131C7.5986 17.1425 24.7392 0.000488281 45.8112 0.000488281C66.8832 0.000488281 84.0238 17.1425 84.0238 38.2131C84.0238 59.2837 66.8785 76.4257 45.8112 76.4257ZM45.8112 1.76957C25.716 1.76957 9.36721 18.1179 9.36721 38.2131C9.36721 58.3083 25.716 74.6571 45.8112 74.6571C65.9064 74.6571 82.2547 58.3083 82.2547 38.2131C82.2547 18.1179 65.905 1.76957 45.8112 1.76957Z" fill="#371A45"/>
<path d="M45.8112 76.4257C24.7406 76.4257 7.5986 59.2837 7.5986 38.2131C7.5986 17.1425 24.7392 0.000488281 45.8112 0.000488281C66.8832 0.000488281 84.0238 17.1425 84.0238 38.2131C84.0238 59.2837 66.8785 76.4257 45.8112 76.4257ZM45.8112 1.76957C25.716 1.76957 9.36721 18.1179 9.36721 38.2131C9.36721 58.3083 25.716 74.6571 45.8112 74.6571C65.9064 74.6571 82.2547 58.3083 82.2547 38.2131C82.2547 18.1179 65.905 1.76957 45.8112 1.76957Z" fill="#371A45"/>
<path d="M45.8112 76.4257C24.7406 76.4257 7.5986 59.2837 7.5986 38.2131C7.5986 17.1425 24.7392 0.000488281 45.8112 0.000488281C66.8832 0.000488281 84.0238 17.1425 84.0238 38.2131C84.0238 59.2837 66.8785 76.4257 45.8112 76.4257ZM45.8112 1.76957C25.716 1.76957 9.36721 18.1179 9.36721 38.2131C9.36721 58.3083 25.716 74.6571 45.8112 74.6571C65.9064 74.6571 82.2547 58.3083 82.2547 38.2131C82.2547 18.1179 65.905 1.76957 45.8112 1.76957Z" fill="#371A45"/>
<path d="M45.8112 76.4252C28.3996 76.4252 13.2012 64.6789 8.8303 47.8555C8.82317 47.8351 8.81699 47.8146 8.81175 47.7932C7.64655 43.2709 7.31729 38.5737 7.84019 33.9331C9.98972 14.5902 26.3133 0.000976562 45.8112 0.000976562C65.3091 0.000976562 81.6379 14.5945 83.786 33.9464C84.3029 38.5824 83.9738 43.2738 82.8149 47.7923C82.8092 47.8142 82.803 47.836 82.7959 47.857C78.4179 64.6803 63.2167 76.4252 45.8112 76.4252ZM10.5299 47.3638C14.6825 63.4344 29.189 74.6562 45.8112 74.6562C62.4334 74.6562 76.9408 63.433 81.0977 47.3624C81.1034 47.3381 81.1105 47.3148 81.1186 47.2906C82.2118 42.9986 82.5202 38.5444 82.0288 34.1428C79.9768 15.6868 64.4056 1.76958 45.8112 1.76958C27.2168 1.76958 11.6504 15.6821 9.59833 34.1309C9.44447 35.486 9.36763 36.8488 9.36816 38.2126C9.36561 41.2745 9.74908 44.3246 10.5095 47.2906C10.5143 47.3148 10.5214 47.3391 10.5276 47.3638H10.5299Z" fill="#371A45"/>
<path d="M81.8377 29.3082C81.6648 29.3081 81.4957 29.2574 81.3512 29.1624C81.2068 29.0673 81.0934 28.932 81.0249 28.7732C75.128 15.0795 61.3035 6.23173 45.8098 6.23173C30.3256 6.23173 16.5054 15.0719 10.6008 28.7537C10.5108 28.9569 10.3475 29.1187 10.1436 29.207C9.93965 29.2953 9.70994 29.3036 9.50017 29.2302C9.2904 29.1569 9.11593 29.0072 9.01146 28.8111C8.90699 28.6149 8.88018 28.3867 8.93636 28.1716C13.4366 11.5846 28.5998 0 45.8112 0C63.0326 0 78.1992 11.5932 82.6922 28.1926C82.7275 28.3237 82.7322 28.4611 82.7059 28.5943C82.6796 28.7275 82.623 28.8529 82.5406 28.9608C82.4581 29.0686 82.352 29.1561 82.2304 29.2164C82.1087 29.2768 81.9749 29.3083 81.8391 29.3087L81.8377 29.3082ZM45.8112 4.46217C53.8515 4.46217 61.5998 6.74485 68.2181 11.0653C70.9984 12.875 73.54 15.0273 75.7828 17.4716C69.1136 7.85671 58.0007 1.76956 45.8112 1.76956C33.6692 1.76956 22.5958 7.81486 15.9171 17.3636C23.3368 9.28814 34.122 4.46217 45.8112 4.46217Z" fill="#371A45"/>
<path d="M83.1355 38.214C83.1376 41.3708 82.7405 44.5153 81.9537 47.5725C81.9528 47.5725 81.952 47.5729 81.9513 47.5735C81.9507 47.5741 81.9504 47.575 81.9504 47.5758C75.4747 60.0864 61.722 70.8511 45.8079 70.8511C29.8938 70.8511 16.143 60.0864 9.66872 47.5758C9.66872 47.575 9.66837 47.5741 9.66774 47.5735C9.66712 47.5729 9.66628 47.5725 9.66539 47.5725C8.87591 44.5158 8.47801 41.3711 8.48125 38.214C8.48107 36.8175 8.56046 35.4222 8.71903 34.0348C13.7547 20.1009 28.4547 10.019 45.8126 10.019C63.1705 10.019 77.8762 20.1076 82.9062 34.0443C83.0603 35.4288 83.1368 36.8209 83.1355 38.214Z" fill="#371A45"/>
<g opacity="0.35">
<path d="M83.1369 38.2149C83.1397 41.3717 82.7431 44.5162 81.9565 47.5735C81.9557 47.5735 81.9548 47.5738 81.9542 47.5744C81.9536 47.5751 81.9532 47.5759 81.9532 47.5768C75.478 60.0873 61.7253 70.8516 45.8107 70.8516C29.8961 70.8516 16.1449 60.0873 9.66871 47.5768C9.66871 47.5759 9.66836 47.5751 9.66774 47.5744C9.66711 47.5738 9.66627 47.5735 9.66539 47.5735C9.19996 45.7709 8.87042 43.9359 8.67955 42.0841C17.0494 51.4864 29.218 58.3273 42.7657 58.3273C60.0257 58.3273 75.0562 47.2253 82.8363 33.865C82.8601 33.9263 82.8839 33.9844 82.9048 34.0457C83.0596 35.43 83.137 36.822 83.1369 38.2149Z" fill="#111A28"/>
</g>
<path d="M45.8079 71.3267C38.2346 71.3267 30.6689 68.8961 23.9321 64.2979C17.8179 60.1259 12.6095 54.2765 9.26304 47.8241C9.23748 47.783 9.21839 47.7383 9.20645 47.6914C8.40658 44.5958 8.00262 41.4113 8.00424 38.214C8.00335 36.7998 8.08273 35.3867 8.24202 33.9815C8.24589 33.9448 8.25436 33.9087 8.26722 33.874C10.8043 26.8534 15.6859 20.8133 22.379 16.4058C29.1971 11.9175 37.2982 9.54492 45.8064 9.54492C54.3147 9.54492 62.4191 11.9189 69.2382 16.4096C75.9341 20.8195 80.8138 26.8619 83.3494 33.8845C83.3624 33.9195 83.3708 33.9559 83.3746 33.9929C83.8862 38.5799 83.5607 43.2217 82.414 47.6924C82.4018 47.7391 82.3827 47.7838 82.3574 47.825C79.0109 54.277 73.8016 60.1268 67.6864 64.2989C60.9478 68.8961 53.3816 71.3267 45.8079 71.3267ZM10.1095 47.3951C16.0497 58.8404 29.3825 70.3756 45.8079 70.3756C62.2332 70.3756 75.5693 58.8404 81.5095 47.3951C82.6101 43.0731 82.9244 38.5884 82.4373 34.1551C77.2989 20.0015 62.587 10.4965 45.8079 10.4965C29.0287 10.4965 14.3225 19.9977 9.18172 34.1456C8.68924 38.5824 9.00357 43.0717 10.1095 47.3966V47.3951Z" fill="#371A45"/>
<g opacity="0.5">
<path d="M76.7891 37.3714C77.3559 33.8364 75.7388 30.6378 73.1771 30.227C70.6155 29.8163 68.0793 32.3489 67.5125 35.8839C66.9456 39.4188 68.5627 42.6174 71.1244 43.0282C73.6861 43.439 76.2222 40.9063 76.7891 37.3714Z" fill="white"/>
</g>
<g opacity="0.5">
<path d="M69.0096 49.6239C69.4862 48.0462 68.7751 46.4358 67.4214 46.0269C66.0676 45.6179 64.5839 46.5653 64.1073 48.143C63.6307 49.7206 64.3418 51.331 65.6955 51.74C67.0493 52.1489 68.533 51.2015 69.0096 49.6239Z" fill="white"/>
</g>
<g opacity="0.5">
<path d="M17.2092 49.4039C17.2092 49.4039 10.9713 30.8571 20.88 23.2148C30.7888 15.5726 45.2624 15.3101 44.9433 16.245C44.9433 16.245 28.9997 20.4485 22.9872 33.242C18.3496 43.1075 17.2092 49.4039 17.2092 49.4039Z" fill="white"/>
</g>
</svg>
